<svg xmlns="http://www.w3.org/2000/svg" xmlns:xlink="http://www.w3.org/1999/xlink" xmlns:lucid="lucid" width="1723" height="803"><g transform="translate(-2066.4999999925208 -579.2999999965497)" lucid:page-tab-id="5vFKwq7wY26A"><path d="M0 0h5484.6v2581.67H0z" fill="#fff"/><path d="M2588 666.8a6 6 0 0 1 6-6h748a6 6 0 0 1 6 6v648a6 6 0 0 1-6 6h-748a6 6 0 0 1-6-6z" stroke="#5e5e5e" stroke-width="3" fill-opacity="0"/><path d="M2068 586.8a6 6 0 0 1 6-6h1708a6 6 0 0 1 6 6v788a6 6 0 0 1-6 6H2074a6 6 0 0 1-6-6z" stroke="#5e5e5e" stroke-width="3" fill="#fff"/><path d="M2633.25 683.1h120v120h-120v-120z" stroke="#fff" stroke-opacity="0" stroke-width="2" fill="#3f8624"/><path d="M2731.54 747.16c-.46-2.48-3.3-4.25-5.3-5.53-.6-.4-2.3-1.04-2.44-1.6 0-.4 0-.8.15-1.2l1.6-11.46 1.4-10.17c.37-3.05-1.1-5.13-3.6-6.9-5.15-3.6-11.9-5.04-17.96-6-7.98-1.28-14.96-1.52-23-.72-7.3.48-13.35 1.92-20.1 4.8-3.37 1.6-7.9 4.1-7.28 8.42 1.54 12.98 3.45 25.95 5.22 38.93.76 5.93 1.6 11.86 2.37 17.8.32 2.47 1.7 4.4 4 5.35 4.9 2.65 11.04 3.45 16.64 3.93 7.74.73 14.33.5 22-.95 4.6-.8 13.2-2.25 13.96-8 .9-7.14 1.9-14.27 2.83-21.4l.38-2.17c2.62.64 10.06 2 9.14-3.12zm-40.64-40.86c9.66 0 20.63 1.12 29.2 5.85 1.4.72 4.46 2.32 3.54 4.33-.92 1.92-3.83 2.88-5.6 3.6-2.6.96-4.98 1.6-7.74 2.16-11.96 2.4-22.54 2.65-34.65.73-5.45-.57-9.97-1.93-14.88-4.33-1.15-.72-3.06-1.84-2.53-3.45.4-.9 1-1.53 1.84-2 3.76-2.4 7.2-3.85 11.58-4.66 6.6-1.6 12.42-2.32 19.24-2.24zm25.15 67.46c-.3 1.84-3.37 2.8-4.83 3.28-3.22 1.12-6.06 1.76-9.43 2.16-7.45.97-13.9.97-21.4 0-4.68-.4-8.6-1.44-12.8-3.52-1.15-.48-1.84-1.52-1.92-2.72-1.6-12.74-3.37-25.4-5.14-38.06l-1.84-13.78c3.84 2.1 7.36 3.37 11.66 4.1 4.67.95 8.58 1.43 13.34 1.75 9.2.64 17.1.24 26.22-1.44 4.83-.72 8.82-2.08 13.1-4.4l-3.36 25.07c-8.6-2.8-15.65-5.6-23.7-9.54-.38-.16-.7-.32-1-.48-.45-.32-.3-.16-.53-.64-.38-.96-.46-1.6-1.3-2.4-.77-.56-1.6-.8-2.53-.72-2 .08-3.53 1.84-3.38 3.84.16 1.93 1.92 3.45 3.9 3.3.55-.1 1-.25 1.62-.5.62-.15.62-.15 1.23.17 8.2 4 15.33 6.97 24 9.85 1.23.4 1.23 0 1.23 1.04-.08.8-.16 1.53-.3 2.33l-1 7.6zm-24.7-37.9c0 .48-.6.4-.75.16-.23-.32.76-.72.76-.16zm31.53 11.22l.45-3.53c1.62.97 4.3 2.33 5.07 4.1-1.62.63-4.07-.17-5.53-.57z" stroke="#fff" stroke-opacity="0" stroke-width="2" fill="#fff"/><use xlink:href="#a" transform="matrix(1,0,0,1,2603.25,812.1000000000001) translate(27.099999999999994 14.4)"/><use xlink:href="#b" transform="matrix(1,0,0,1,2603.25,812.1000000000001) translate(98.05 14.4)"/><use xlink:href="#c" transform="matrix(1,0,0,1,2603.25,812.1000000000001) translate(6.624999999999986 36)"/><use xlink:href="#d" transform="matrix(1,0,0,1,2603.25,812.1000000000001) translate(74.57499999999999 36)"/><use xlink:href="#e" transform="matrix(1,0,0,1,2603.25,812.1000000000001) translate(139.47500000000002 36)"/><path d="M2633.25 1160.8h120v120h-120v-120z" stroke="#000" stroke-opacity="0" fill="url(#f)"/><path d="M2678.22 1198.23h3.8v3.8h-3.8v18.63c0-.42.25-.9.58-1.24l5.62-5.6 2.64 2.63-4.3 4.3 4.3 4.28-2.64 2.63-5.62-5.6c-.33-.33-.58-.83-.58-1.32v18.7h3.8v3.8h-3.8v16.82c0 .66-.33 1.24-.9 1.65-.25.18-.58.26-1 .26-.24 0-.5-.08-.82-.16l-22.46-11.3c-.66-.33-1.07-.9-1.07-1.65v-54.33c0-.65.33-1.32.9-1.64l22.55-13.1c.57-.34 1.32-.34 1.9 0 .57.32.9.98.9 1.64zm56.3-3.7v54.32c0 .74-.4 1.32-1.06 1.65l-22.46 11.3c-.33.08-.58.16-.82.16-.42 0-.75-.08-1-.25-.57-.4-.9-.98-.9-1.64v-16.8h-3.8v-3.8h3.8v-18.72c0 .5-.25 1-.58 1.32l-5.62 5.6-2.64-2.63 4.3-4.3-4.3-4.28 2.64-2.63 5.62 5.6c.33.33.58.82.58 1.24v-18.63h-3.8v-3.8h3.8v-16.8c0-.67.33-1.33.9-1.66.58-.33 1.33-.33 1.9 0l22.54 13.1c.58.34.9 1 .9 1.65zm-60-9.9l-18.84 10.97v52.1l18.83 9.3zm56.3 10.97l-18.83-10.97V1257l18.82-9.3zm-32.04 16.4l-7.5 20.6-3.56-1.22 7.5-20.62zm-13.04-9.97v-3.8h5.6v3.8zm9.4 0v-3.8h5.62v3.8zm-9.4 41.22v-3.8h5.6v3.8zm9.4 0v-3.8h5.62v3.8z" stroke="#000" stroke-opacity="0" fill="#fff"/><use xlink:href="#g" transform="matrix(1,0,0,1,2603.25,1289.8000000000002) translate(2.049999999999997 14.4)"/><use xlink:href="#h" transform="matrix(1,0,0,1,2603.25,1289.8000000000002) translate(73 14.4)"/><use xlink:href="#i" transform="matrix(1,0,0,1,2603.25,1289.8000000000002) translate(107 14.4)"/><path d="M2908 1160.8h120v120h-120v-120z" stroke="#fff" stroke-opacity="0" stroke-width="2" fill="#d86613"/><path d="M3004.8 1260.8h-19.72c-.64 0-1.15-.32-1.4-.88l-27.92-58.32h-11.78c-.9 0-1.6-.72-1.6-1.6v-17.6c0-.88.7-1.6 1.6-1.6h24.65c.64 0 1.15.32 1.4.88l27.8 58.32h6.97c.9 0 1.6.72 1.6 1.6v17.6c0 .88-.7 1.6-1.6 1.6zm-18.7-3.2h17.1v-14.4h-6.4c-.64 0-1.16-.32-1.4-.88l-27.8-58.32h-22v14.4h11.2c.63 0 1.14.32 1.46.88z" stroke="#fff" stroke-opacity="0" stroke-width="2" fill="#fff"/><path d="M2951.96 1260.8h-20.8c-.55 0-1.05-.3-1.37-.73-.33-.54-.33-1.12-.08-1.6l21.78-45.46c.24-.58.8-.92 1.4-.92.65 0 1.18.34 1.46.88l10.4 21.43c.26.43.26.92 0 1.4l-11.35 23.98c-.2.63-.77 1.02-1.44 1.02zm-18.24-3.22h17.24l10.6-22.36-8.6-17.88z" stroke="#fff" stroke-opacity="0" stroke-width="2" fill="#fff"/><use xlink:href="#j" transform="matrix(1,0,0,1,2878,1289.8000000000002) translate(34.875 14.4)"/><use xlink:href="#k" transform="matrix(1,0,0,1,2878,1289.8000000000002) translate(80.175 14.4)"/><path d="M3188 1160.8h120v120h-120v-120z" stroke="#fff" stroke-opacity="0" stroke-width="2" fill="#3b48cc"/><path d="M3268.4 1225.58l-10.6 10.55c2-.56 3.65-1.2 5.5-2.24 1.1.63 1.68 1.67 1.9 2.87 0 2.96-6.2 6.16-15.4 7.43-3.05.4-5.55.57-8.6.57h-1.58c-12.95-.24-22.42-4.32-22.42-8 .17-1.2.82-2.16 1.9-2.88 5 2.8 13.18 4.47 22.1 4.47h.17l.92-3.2h-1.1c-8.8 0-16.98-1.76-21.28-4.47-1.74-1.12-2.72-2.4-2.72-3.44v-7.43c4.9 3.75 14.64 5.67 24 5.67 1.25 0 2.5 0 3.76-.08l.92-3.2c-1.63.08-3.1.16-4.68.16-13.7 0-24-4.23-24-8 .17-1.27.82-2.23 1.9-2.87 4.42 2.5 11.22 4 18.9 4.4l.1-3.2c-7.56-.4-14.42-2-18.18-4.47-1.74-1.04-2.66-2.3-2.72-3.43v-7.36c4.9 3.76 14.64 5.68 24 5.68h.33l1.74-3.2h-2.07c-13.7 0-24-4.16-24-8 0-3.75 10.3-8 24-8 4.85 0 8.98.5 13.72 1.6h8.8c-4.83-2.94-13.1-4.78-22.52-4.78-13.17 0-27.2 3.9-27.2 11.2v12.86c.1 1.9.92 3.5 2.44 4.7-1.52 1.3-2.34 2.9-2.45 4.8v12.8c.1 2 .92 3.6 2.44 4.88-1.52 1.2-2.34 2.8-2.45 4.8v13.1c.43 7.03 14.2 10.8 27.2 10.8s26.78-3.77 27.2-10.88V1236.68c-.04-1.9-.9-3.6-2.44-4.8 1.53-1.18 2.34-2.86 2.45-4.78zm-3.2 23.98c0 3.76-10.28 8-24 8-13.7 0-24-4.16-24-8v-7.35c4.9 3.68 14.64 5.68 24 5.68s19.1-2 24-5.67z" stroke="#fff" stroke-opacity="0" stroke-width="2" fill="#fff"/><path d="M3224 1204.83c0 1.1-.9 2-2 2s-2-.9-2-2 .9-2 2-2 2 .9 2 2zM3224 1227.23c0 1.1-.9 2-2 2s-2-.9-2-2 .9-2 2-2 2 .9 2 2zM3224 1249.63c0 1.1-.9 2-2 2s-2-.9-2-2 .9-2 2-2 2 .9 2 2zM3245.2 1243.17c-.3 0-.53-.06-.8-.22-.66-.38-.94-1.14-.74-1.85l9-29.95h-9.08c-.88.06-1.6-.65-1.6-1.58 0-.27.04-.54.2-.76l9.58-19.2c.28-.55.8-.88 1.45-.88h20.82c.88-.06 1.6.65 1.64 1.52.04.22 0 .38-.04.6l-4.13 12.25h8.97c.88.05 1.6.76 1.6 1.63 0 .43-.16.76-.44 1.1l-35.2 36.8c-.32.38-.72.54-1.24.54zm1-35.18h8.6c.53 0 .97.2 1.3.6.27.43.4.92.23 1.4l-7.7 25.6 28.03-29.24h-7.46c-.88 0-1.64-.65-1.68-1.52 0-.22 0-.44.08-.6l4.1-12.3h-17.6z" stroke="#fff" stroke-opacity="0" stroke-width="2" fill="#fff"/><use xlink:href="#a" transform="matrix(1,0,0,1,3158,1289.8000000000002) translate(8.599999999999994 14.4)"/><use xlink:href="#l" transform="matrix(1,0,0,1,3158,1289.8000000000002) translate(79.55 14.4)"/><path d="M2216.2 985.92h18v13.94h-18v-13.94zM2129.2 860.8h190.4v125.12h-190.4V860.8z" fill="#29aae1"/><path d="M2137.8 868.45h173.8V980.3h-173.8V868.46z" fill="#fff" fill-opacity=".98"/><path d="M2136.6 1000.7h173.6l-8.6 29.93H2128l8.6-29.92z" fill="#29aae1"/><path d="M2135.6 999.7h177.6l14.8 30.93h-177.6l-14.8-30.94z" fill="#29aae1"/><path d="M2195.8 1022.64h63.2v6.3h-63.2v-6.3zM2161 1004.62h4.6v3.9h-4.6v-3.9zM2169.2 1004.8h4.8v3.9h-4.8v-3.9zM2179.8 1011.93h4.8v3.9h-4.8v-3.9zM2178.2 1004.28h4.6v4.08h-4.6v-4.08zM2186.2 1004.62h4.8v3.9h-4.8v-3.9zM2194 1004.28h4.8v4.08h-4.8v-4.08zM2243 1004.96h4.8v4.08h-4.8v-4.08zM2250.2 1004.96h4.8v4.08h-4.8v-4.08zM2257 1004.96h4.8v4.08h-4.8v-4.08zM2265.2 1004.96h4.6v4.08h-4.6v-4.08zM2272.6 1004.96h4.6v4.08h-4.6v-4.08zM2263.8 1011.6h4.6v3.9h-4.6v-3.9zM2281 1004.96h4.8v4.08h-4.8v-4.08zM2188.8 1011.76h4.6v3.9h-4.6v-3.9zM2197.8 1011.76h4.6v3.9h-4.6v-3.9zM2256.4 1011.42h4v3.9h-4v-3.9zM2248.2 1011.42h4.8v3.9h-4.8v-3.9zM2202.8 1004.45h4.8v4.08h-4.8v-4.08zM2211.8 1004.62h4.6v4.08h-4.6v-4.08zM2220 1004.45h4.6v4.08h-4.6v-4.08zM2229 1004.45h4.6v4.08h-4.6v-4.08zM2236.4 1004.62h4.6v4.08h-4.6v-4.08zM2205.8 1011.6h4.8v3.9h-4.8v-3.9zM2214.8 1011.6h4.6v3.9h-4.6v-3.9zM2223 1011.76h4.8v3.9h-4.8v-3.9zM2231.2 1011.76h4.6v3.9h-4.6v-3.9zM2239.6 1011.42h4.6v3.9h-4.6v-3.9z" fill="#fff"/><path d="M2128.2 1030.63l199.8-.68-14.2-30.26-177 .33-8.6 30.6z" fill="none"/><path d="M2215.2 985.92h19.6v1.87h-19.6v-1.88zM2216 997.48h18.6v2.2H2216v-2.2z" fill="#fff"/><use xlink:href="#m" transform="matrix(1,0,0,1,2098,1030.8000000000002) translate(76.275 18.6)"/><use xlink:href="#n" transform="matrix(1,0,0,1,2098,1030.8000000000002) translate(117.875 18.6)"/><path d="M2477.43 939.84l-.1 1.06-.24 1.06-.43 1.02-.58.94-.72.83-.84.72-.94.57-1 .42-1.08.26-1.06.08H2320.6v-2h149.8l.8-.06.77-.2.72-.3.66-.4.6-.5.5-.6.42-.67.3-.73.18-.76.07-.82V764.7h2zm137.32-195.74h-69v-2h69z" stroke="#5e5e5e" stroke-width=".05" fill="#5e5e5e"/><path d="M2320.63 946.8h-1.03v-2h1.03z" fill="#5e5e5e"/><path d="M2320.65 946.83h-1.08v-2.06h1.08zm-1.03-2v1.94h.98v-1.94z" stroke="#5e5e5e" stroke-width=".05" fill="#5e5e5e"/><path d="M2630 743.1l-14.25 4.63v-9.26z" fill="#5e5e5e"/><path d="M2633.25 743.1l-18.5 6v-12zm-16.5 3.26l10.03-3.26-10.03-3.26z" stroke="#5e5e5e" stroke-width=".05" fill="#5e5e5e"/><use xlink:href="#o" transform="matrix(1,0,0,1,2466.8526321992613,721.5000000000001) translate(0.005000000000002558 14.4)"/><use xlink:href="#p" transform="matrix(1,0,0,1,2466.8526321992613,721.5000000000001) translate(46.90500000000001 14.4)"/><use xlink:href="#q" transform="matrix(1,0,0,1,2466.8526321992613,721.5000000000001) translate(7.005000000000003 36)"/><path d="M2614.75 1219.8v2h-63.97v-2zm-143.23-274.92l1.07.26 1 .42.94.57.84.72.7.83.6.94.4 1.02.26 1.06.1 1.06v255.07h-2v-255l-.08-.8-.18-.77-.3-.73-.4-.67-.52-.6-.6-.5-.67-.4-.73-.3-.76-.2-.8-.06h-149.8v-2h149.86z" stroke="#5e5e5e" stroke-width=".05" fill="#5e5e5e"/><path d="M2320.63 946.8h-1.03v-2h1.03z" fill="#5e5e5e"/><path d="M2320.65 946.83h-1.08v-2.06h1.08zm-1.03-2v1.94h.98v-1.94z" stroke="#5e5e5e" stroke-width=".05" fill="#5e5e5e"/><path d="M2630 1220.8l-14.25 4.63v-9.27z" fill="#5e5e5e"/><path d="M2633.25 1220.8l-18.5 6v-12zm-16.5 3.26l10.03-3.26-10.03-3.26z" stroke="#5e5e5e" stroke-width=".05" fill="#5e5e5e"/><use xlink:href="#r" transform="matrix(1,0,0,1,2402.0750000000003,1206.8308188104145) translate(0 14.4)"/><use xlink:href="#s" transform="matrix(1,0,0,1,2402.0750000000003,1206.8308188104145) translate(74.85000000000001 14.4)"/><use xlink:href="#t" transform="matrix(1,0,0,1,2402.0750000000003,1206.8308188104145) translate(108.85000000000001 14.4)"/><path d="M2795.63 1221.8h-41.38v-2h41.38zm93.87 0h-23.88v-2h23.88z" stroke="#5e5e5e" stroke-width=".05" fill="#5e5e5e"/><path d="M2754.28 1221.8h-1.03v-2h1.03z" fill="#5e5e5e"/><path d="M2754.3 1221.83h-1.08v-2.05h1.08zm-1.03-2v1.95h.98v-1.95z" stroke="#5e5e5e" stroke-width=".05" fill="#5e5e5e"/><path d="M2904.76 1220.8l-14.26 4.63v-9.27z" fill="#5e5e5e"/><path d="M2908 1220.8l-18.5 6v-12zm-16.5 3.26l10.03-3.26-10.03-3.26z" stroke="#5e5e5e" stroke-width=".05" fill="#5e5e5e"/><use xlink:href="#u" transform="matrix(1,0,0,1,2795.625,1199.2000000000003) translate(0.005000000000002558 14.4)"/><use xlink:href="#v" transform="matrix(1,0,0,1,2795.625,1199.2000000000003) translate(4.555 36)"/><path d="M3029 1220.8h140.5" stroke="#5e5e5e" stroke-width="2" fill="none"/><path d="M3029.03 1221.8H3028v-2h1.03z" stroke="#5e5e5e" stroke-width=".05" fill="#5e5e5e"/><path d="M3184.76 1220.8l-14.26 4.63v-9.27z" stroke="#5e5e5e" stroke-width="2" fill="#5e5e5e"/><path d="M2908 910.8h120v120h-120v-120z" stroke="#fff" stroke-opacity="0" fill="#cc2264"/><path d="M2958.38 987.6h-17.6c-1.84-.05-3.44-.53-5.04-1.48-5.04-3.12-7.84-8.3-7.76-14.27-.32-6.8 3.92-12.73 10.4-14.63v-1.27c.24-8.5 4.8-15.7 12.56-19.34 8.24-3.63 17.36-1.84 23.6 4.7 2.17 2.18 3.6 4.3 4.8 7.04 1.77-1.37 3.7-2.06 5.93-2.06 4.32 0 9.28 3.28 10.16 10.52 4.08 1 12.56 4.33 12.56 15.2.23 5.72-2.57 10.74-7.6 13.43l-1.6-2.8c4-2.16 6.15-6.13 5.9-10.62 0-9.4-7.75-11.72-11.2-12.3-.4-.1-.8-.32-1.03-.7-.24-.3-.32-.73-.24-1.15-.48-5.8-3.84-8.4-7.04-8.4-2.17.05-3.93 1-5.2 2.75-.33.47-.9.7-1.53.63-.56-.1-1.04-.47-1.28-1.05-1.05-3.23-2.65-5.76-4.97-8.2-5.37-5.5-13.05-7.02-20.1-3.96-6.4 3.12-10.3 9.14-10.55 16.28 0 .8.08 1.48.16 2.22.08.84-.48 1.63-1.28 1.8-5.68 1.16-9.6 6.18-9.28 11.93-.16 4.87 2.16 9.04 6.32 11.52 1.04.7 2.08 1 3.28 1h17.6z" stroke="#fff" stroke-opacity="0" fill="#fff"/><path d="M3006.23 997.2l-11.38-11.4c2.18-4.86 2.05-9.9-.37-14.64-4.28-8.35-14.53-11.68-22.86-7.37-8.33 4.26-11.66 14.5-7.38 22.8 4.28 8.35 14.5 11.67 22.86 7.4l11.2 11.18c1.1 1.13 2.42 1.62 3.97 1.62 1.55 0 2.9-.5 4-1.62h.05c2.14-2.24 2.14-5.8-.1-8zm-26.87-4.54c-7.6 0-13.75-6.15-13.75-13.74 0-7.58 6.16-13.74 13.76-13.74s13.75 6.16 13.75 13.74c0 7.6-6.13 13.74-13.74 13.74zm24.64 10.24c-.96.9-2.5.9-3.46 0l-10.66-10.7c1.37-1.07 2.4-2.14 3.42-3.58l10.7 10.82c.95.94.95 2.47 0 3.45z" stroke="#fff" stroke-opacity="0" fill="#fff"/><path d="M2983.76 971.5l-1.9 2.56c-1.2-.88-2.53-1.2-4-1-2.94.43-4.98 3.18-4.55 6.12.2 1.5.9 2.73 2.15 3.62l-1.85 2.5c-3.76-2.9-4.47-8.3-1.57-12.05 2.82-3.67 8.02-4.46 11.8-1.76z" stroke="#fff" stroke-opacity="0" fill="#fff"/><use xlink:href="#a" transform="matrix(1,0,0,1,2878,1039.8000000000002) translate(5.924999999999997 14.4)"/><use xlink:href="#w" transform="matrix(1,0,0,1,2878,1039.8000000000002) translate(76.875 14.4)"/><path d="M2968 1031.8v110.5" stroke="#5e5e5e" stroke-width="2" fill="none"/><path d="M2969 1031.83h-2v-1.03h2z" stroke="#5e5e5e" stroke-width=".05" fill="#5e5e5e"/><path d="M2968 1157.56l-4.64-14.26h9.28z" stroke="#5e5e5e" stroke-width="2" fill="#5e5e5e"/><path d="M2968 1031.8v58a6 6 0 0 1-6 6h-262.75a6 6 0 0 0-6 6v40.5" stroke="#5e5e5e" stroke-width="2" fill="none"/><path d="M2969 1031.83h-2v-1.03h2z" stroke="#5e5e5e" stroke-width=".05" fill="#5e5e5e"/><path d="M2693.25 1157.56l-4.64-14.26h9.3z" stroke="#5e5e5e" stroke-width="2" fill="#5e5e5e"/><path d="M2968 1031.8v58a6 6 0 0 0 6 6h268a6 6 0 0 1 6 6v40.5" stroke="#5e5e5e" stroke-width="2" fill="none"/><path d="M2969 1031.83h-2v-1.03h2z" stroke="#5e5e5e" stroke-width=".05" fill="#5e5e5e"/><path d="M3248 1157.56l-4.64-14.26h9.28z" stroke="#5e5e5e" stroke-width="2" fill="#5e5e5e"/><path d="M3608 850.8h120v120h-120v-120z" stroke="#fff" stroke-opacity="0" fill="#d6242d"/><path d="M3703.52 881.2h-71.04c-2.48 0-4.48 2-4.48 4.5v50.2c0 2.5 2 4.5 4.48 4.5h71.04c2.48 0 4.48-2 4.48-4.5v-50.2c0-2.5-2-4.5-4.48-4.5zm1.28 54.7c0 .7-.56 1.3-1.28 1.3h-71.04c-.72 0-1.28-.6-1.28-1.3v-50.2c0-.7.56-1.3 1.28-1.3h71.04c.72 0 1.28.6 1.28 1.3z" stroke="#fff" stroke-opacity="0" fill="#fff"/><path d="M3672.8 902h16v3.2h-16V902zM3695.2 902h3.2v3.2h-3.2V902zM3665.92 907.3c-.3-.35-.67-.52-1.12-.52h-22.4v-8c.03-1.85.86-3.45 2.4-4.53 1.7-1.3 3.5-1.86 5.6-1.86 2.18-.05 4.06.64 5.76 2.03 1.4 1.08 2.18 2.6 2.24 4.36v7.98h3.2v-8.64c-.06-2.63-1.25-4.84-3.4-6.4-2.33-1.76-4.86-2.6-7.8-2.54-6.18 0-11.2 4.02-11.2 8.94v8.64h-3.2c-.9 0-1.6.74-1.6 1.6v22.42c0 .87.7 1.6 1.6 1.6h28.8c.9 0 1.6-.73 1.6-1.6v-22.42c0-.43-.16-.78-.45-1.08zm-2.72 7.52h-4.8v3.2h4.8v3.2h-4.8v3.2h4.8v4.78h-25.6v-19.18h25.6z" stroke="#fff" stroke-opacity="0" fill="#fff"/><path d="M3650.4 912.5c-2 .02-3.7 1.2-4.38 3.1-.9 2.4.35 5.1 2.78 6v4.4h3.2v-4.4c1.88-.7 3.06-2.38 3.07-4.38 0-2.6-2.08-4.7-4.67-4.7zm0 6.73c-1.12 0-2.03-.9-2.03-2.02 0-1.13.9-2.03 2.03-2.03 1.12 0 2.04.9 2.04 2.04 0 1.13-.92 2.03-2.04 2.03zM3672.8 910h11.2v3.2h-11.2V910zM3690.4 910h8v3.2h-8V910zM3672.8 918h20.8v3.2h-20.8V918z" stroke="#fff" stroke-opacity="0" fill="#fff"/><g><use xlink:href="#j" transform="matrix(1,0,0,1,3578,979.8000000000002) translate(20.875 14.4)"/><use xlink:href="#x" transform="matrix(1,0,0,1,3578,979.8000000000002) translate(66.175 14.4)"/><use xlink:href="#y" transform="matrix(1,0,0,1,3578,979.8000000000002) translate(129.125 14.4)"/><use xlink:href="#z" transform="matrix(1,0,0,1,3578,979.8000000000002) translate(6.049999999999997 36)"/><use xlink:href="#A" transform="matrix(1,0,0,1,3578,979.8000000000002) translate(69.05 36)"/><use xlink:href="#B" transform="matrix(1,0,0,1,3578,979.8000000000002) translate(68.075 57.6)"/></g><path d="M3479 902.74l-7.34-6.7-3.66 7 5.62.67 5.38-.96zM3472.9 911.44l26.6 1.68 26.58-1.68-26.6-14.64-26.57 14.64zM3517.47 902.74l6.46 1.14 7.06-.83-6.3-13.22-7.23 12.9z" fill="#3c4929"/><path d="M3490.78 950.63l15.2-3.54 14.68 3.4-15.2 14.38-14.68-14.25z" fill="#b7ca9d"/><path d="M3492.47 901.4l-7.92-1.35-8.14-10.1 8.15-16.3 7.92 2.45v25.3z" fill="#759c3e"/><path d="M3472.9 883.36V874l26.58-13.2 7.06 14.76-14.08 5.64-7.9-2.4v21l14.92-3 7.97 34.8-7.97 49.2-7.97-3.96v-11.16l-6.93-2.88v-52.56l-11.68 1.2v-9.36l-4.9.96V885.4l4.9-2.04z" fill="#4b612c"/><path d="M3513.27 867.64l5.6 2.76 7.22 3.6v9.36l4.9 2.04v17.64l-4.9-.96v9.36l-6.28-.6-5.4-.6V920.8h11.67v9.6l-5.43.48v9.72l-13.2 2.64v11.16l13.17-3.84.03 9.84-13.2 5.28v11.16l-7.97 3.96v-84l7.03 1.44V881.2l-7.03-2.4v-18l13.77 6.84z" fill="#759c3e"/><path d="M3507.45 875.95l-7.94-3.16-14.94 5.93 7.92 2.46 14.97-5.25z" fill="#3c4929"/><path d="M3506.53 878.74h7.9v21.02l-7.9-1.57v-19.46z" fill="#4b612c"/><path d="M3484.56 878.73l14.94-5.94 3.13 1.25 4.82 1.9 7 2.78-7.93 2.46-7.02-2.47-7.03 2.46-7.9-2.47z" fill="#3c4929"/><g><use xlink:href="#C" transform="matrix(1,0,0,1,3468,980.8000000000002) translate(15.524999999999999 14.4)"/></g><path d="M2708 586.8a6 6 0 0 1 6-6h428a6 6 0 0 1 6 6v70.8a6 6 0 0 1-6 6h-428a6 6 0 0 1-6-6z" stroke="#000" stroke-opacity="0" stroke-width="3" fill="#fff" fill-opacity="0"/><g><use xlink:href="#D" transform="matrix(1,0,0,1,2713,585.8000000000002) translate(18.00185185185188 41.27152777777778)"/><use xlink:href="#E" transform="matrix(1,0,0,1,2713,585.8000000000002) translate(130.01049382716047 41.27152777777778)"/><use xlink:href="#F" transform="matrix(1,0,0,1,2713,585.8000000000002) translate(177.81358024691357 41.27152777777778)"/><use xlink:href="#G" transform="matrix(1,0,0,1,2713,585.8000000000002) translate(293.1925925925926 41.27152777777778)"/></g><defs><path fill="#333" d="M205 0l-28-72H64L36 0H1l101-248h38L239 0h-34zm-38-99l-47-123c-12 45-31 82-46 123h93" id="H"/><path fill="#333" d="M210-169c-67 3-38 105-44 169h-31v-121c0-29-5-50-35-48C34-165 62-65 56 0H25l-1-190h30c1 10-1 24 2 32 10-44 99-50 107 0 11-21 27-35 58-36 85-2 47 119 55 194h-31v-121c0-29-5-49-35-48" id="I"/><path fill="#333" d="M141-36C126-15 110 5 73 4 37 3 15-17 15-53c-1-64 63-63 125-63 3-35-9-54-41-54-24 1-41 7-42 31l-33-3c5-37 33-52 76-52 45 0 72 20 72 64v82c-1 20 7 32 28 27v20c-31 9-61-2-59-35zM48-53c0 20 12 33 32 33 41-3 63-29 60-74-43 2-92-5-92 41" id="J"/><path fill="#333" d="M9 0v-24l116-142H16v-24h144v24L44-24h123V0H9" id="K"/><path fill="#333" d="M100-194c62-1 85 37 85 99 1 63-27 99-86 99S16-35 15-95c0-66 28-99 85-99zM99-20c44 1 53-31 53-75 0-43-8-75-51-75s-53 32-53 75 10 74 51 75" id="L"/><path fill="#333" d="M117-194c89-4 53 116 60 194h-32v-121c0-31-8-49-39-48C34-167 62-67 57 0H25l-1-190h30c1 10-1 24 2 32 11-22 29-35 61-36" id="M"/><g id="a"><use transform="matrix(0.05,0,0,0.05,0,0)" xlink:href="#H"/><use transform="matrix(0.05,0,0,0.05,12,0)" xlink:href="#I"/><use transform="matrix(0.05,0,0,0.05,26.950000000000003,0)" xlink:href="#J"/><use transform="matrix(0.05,0,0,0.05,36.95,0)" xlink:href="#K"/><use transform="matrix(0.05,0,0,0.05,45.95,0)" xlink:href="#L"/><use transform="matrix(0.05,0,0,0.05,55.95,0)" xlink:href="#M"/></g><path fill="#333" d="M185-189c-5-48-123-54-124 2 14 75 158 14 163 119 3 78-121 87-175 55-17-10-28-26-33-46l33-7c5 56 141 63 141-1 0-78-155-14-162-118-5-82 145-84 179-34 5 7 8 16 11 25" id="N"/><path fill="#333" d="M24-231v-30h32v30H24zM24 0v-190h32V0H24" id="O"/><path fill="#333" d="M115-194c55 1 70 41 70 98S169 2 115 4C84 4 66-9 55-30l1 105H24l-1-265h31l2 30c10-21 28-34 59-34zm-8 174c40 0 45-34 45-75s-6-73-45-74c-42 0-51 32-51 76 0 43 10 73 51 73" id="P"/><path fill="#333" d="M24 0v-261h32V0H24" id="Q"/><path fill="#333" d="M100-194c63 0 86 42 84 106H49c0 40 14 67 53 68 26 1 43-12 49-29l28 8c-11 28-37 45-77 45C44 4 14-33 15-96c1-61 26-98 85-98zm52 81c6-60-76-77-97-28-3 7-6 17-6 28h103" id="R"/><g id="b"><use transform="matrix(0.05,0,0,0.05,0,0)" xlink:href="#N"/><use transform="matrix(0.05,0,0,0.05,12,0)" xlink:href="#O"/><use transform="matrix(0.05,0,0,0.05,15.949999999999998,0)" xlink:href="#I"/><use transform="matrix(0.05,0,0,0.05,30.899999999999995,0)" xlink:href="#P"/><use transform="matrix(0.05,0,0,0.05,40.9,0)" xlink:href="#Q"/><use transform="matrix(0.05,0,0,0.05,44.85,0)" xlink:href="#R"/></g><path fill="#333" d="M59-47c-2 24 18 29 38 22v24C64 9 27 4 27-40v-127H5v-23h24l9-43h21v43h35v23H59v120" id="S"/><path fill="#333" d="M114-163C36-179 61-72 57 0H25l-1-190h30c1 12-1 29 2 39 6-27 23-49 58-41v29" id="T"/><path fill="#333" d="M177-190C167-65 218 103 67 71c-23-6-38-20-44-43l32-5c15 47 100 32 89-28v-30C133-14 115 1 83 1 29 1 15-40 15-95c0-56 16-97 71-98 29-1 48 16 59 35 1-10 0-23 2-32h30zM94-22c36 0 50-32 50-73 0-42-14-75-50-75-39 0-46 34-46 75s6 73 46 73" id="U"/><g id="c"><use transform="matrix(0.05,0,0,0.05,0,0)" xlink:href="#N"/><use transform="matrix(0.05,0,0,0.05,12,0)" xlink:href="#S"/><use transform="matrix(0.05,0,0,0.05,17,0)" xlink:href="#L"/><use transform="matrix(0.05,0,0,0.05,27,0)" xlink:href="#T"/><use transform="matrix(0.05,0,0,0.05,32.95,0)" xlink:href="#J"/><use transform="matrix(0.05,0,0,0.05,42.95,0)" xlink:href="#U"/><use transform="matrix(0.05,0,0,0.05,52.95,0)" xlink:href="#R"/></g><path fill="#333" d="M108 0H70L1-190h34L89-25l56-165h34" id="V"/><path fill="#333" d="M96-169c-40 0-48 33-48 73s9 75 48 75c24 0 41-14 43-38l32 2c-6 37-31 61-74 61-59 0-76-41-82-99-10-93 101-131 147-64 4 7 5 14 7 22l-32 3c-4-21-16-35-41-35" id="W"/><g id="d"><use transform="matrix(0.05,0,0,0.05,0,0)" xlink:href="#N"/><use transform="matrix(0.05,0,0,0.05,12,0)" xlink:href="#R"/><use transform="matrix(0.05,0,0,0.05,22,0)" xlink:href="#T"/><use transform="matrix(0.05,0,0,0.05,27.950000000000003,0)" xlink:href="#V"/><use transform="matrix(0.05,0,0,0.05,36.95,0)" xlink:href="#O"/><use transform="matrix(0.05,0,0,0.05,40.900000000000006,0)" xlink:href="#W"/><use transform="matrix(0.05,0,0,0.05,49.900000000000006,0)" xlink:href="#R"/></g><path fill="#333" d="M87 75C49 33 22-17 22-94c0-76 28-126 65-167h31c-38 41-64 92-64 168S80 34 118 75H87" id="X"/><path fill="#333" d="M126-127c33 6 58 20 58 59 0 88-139 92-164 29-3-8-5-16-6-25l32-3c6 27 21 44 54 44 32 0 52-15 52-46 0-38-36-46-79-43v-28c39 1 72-4 72-42 0-27-17-43-46-43-28 0-47 15-49 41l-32-3c6-42 35-63 81-64 48-1 79 21 79 65 0 36-21 52-52 59" id="Y"/><path fill="#333" d="M33-261c38 41 65 92 65 168S71 34 33 75H2C39 34 66-17 66-93S39-220 2-261h31" id="Z"/><g id="e"><use transform="matrix(0.05,0,0,0.05,0,0)" xlink:href="#X"/><use transform="matrix(0.05,0,0,0.05,5.95,0)" xlink:href="#N"/><use transform="matrix(0.05,0,0,0.05,17.95,0)" xlink:href="#Y"/><use transform="matrix(0.05,0,0,0.05,27.950000000000003,0)" xlink:href="#Z"/></g><linearGradient gradientUnits="userSpaceOnUse" id="f" x1="2633.25" y1="1280.8" x2="2753.25" y2="1160.8"><stop offset="0%" stop-color="#b0084d"/><stop offset="100%" stop-color="#ff4f8b"/></linearGradient><path d="M205 0l-28-72H64L36 0H1l101-248h38L239 0h-34zm-38-99l-47-123c-12 45-31 82-46 123h93" id="aa"/><path d="M210-169c-67 3-38 105-44 169h-31v-121c0-29-5-50-35-48C34-165 62-65 56 0H25l-1-190h30c1 10-1 24 2 32 10-44 99-50 107 0 11-21 27-35 58-36 85-2 47 119 55 194h-31v-121c0-29-5-49-35-48" id="ab"/><path d="M141-36C126-15 110 5 73 4 37 3 15-17 15-53c-1-64 63-63 125-63 3-35-9-54-41-54-24 1-41 7-42 31l-33-3c5-37 33-52 76-52 45 0 72 20 72 64v82c-1 20 7 32 28 27v20c-31 9-61-2-59-35zM48-53c0 20 12 33 32 33 41-3 63-29 60-74-43 2-92-5-92 41" id="ac"/><path d="M9 0v-24l116-142H16v-24h144v24L44-24h123V0H9" id="ad"/><path d="M100-194c62-1 85 37 85 99 1 63-27 99-86 99S16-35 15-95c0-66 28-99 85-99zM99-20c44 1 53-31 53-75 0-43-8-75-51-75s-53 32-53 75 10 74 51 75" id="ae"/><path d="M117-194c89-4 53 116 60 194h-32v-121c0-31-8-49-39-48C34-167 62-67 57 0H25l-1-190h30c1 10-1 24 2 32 11-22 29-35 61-36" id="af"/><g id="g"><use transform="matrix(0.05,0,0,0.05,0,0)" xlink:href="#aa"/><use transform="matrix(0.05,0,0,0.05,12,0)" xlink:href="#ab"/><use transform="matrix(0.05,0,0,0.05,26.950000000000003,0)" xlink:href="#ac"/><use transform="matrix(0.05,0,0,0.05,36.95,0)" xlink:href="#ad"/><use transform="matrix(0.05,0,0,0.05,45.95,0)" xlink:href="#ae"/><use transform="matrix(0.05,0,0,0.05,55.95,0)" xlink:href="#af"/></g><path d="M30-248c87 1 191-15 191 75 0 78-77 80-158 76V0H30v-248zm33 125c57 0 124 11 124-50 0-59-68-47-124-48v98" id="ag"/><path d="M33 0v-248h34V0H33" id="ah"/><g id="h"><use transform="matrix(0.05,0,0,0.05,0,0)" xlink:href="#aa"/><use transform="matrix(0.05,0,0,0.05,12,0)" xlink:href="#ag"/><use transform="matrix(0.05,0,0,0.05,24,0)" xlink:href="#ah"/></g><path d="M143 4C61 4 22-44 18-125c-5-107 100-154 193-111 17 8 29 25 37 43l-32 9c-13-25-37-40-76-40-61 0-88 39-88 99 0 61 29 100 91 101 35 0 62-11 79-27v-45h-74v-28h105v86C228-13 192 4 143 4" id="ai"/><path d="M59-47c-2 24 18 29 38 22v24C64 9 27 4 27-40v-127H5v-23h24l9-43h21v43h35v23H59v120" id="aj"/><path d="M100-194c63 0 86 42 84 106H49c0 40 14 67 53 68 26 1 43-12 49-29l28 8c-11 28-37 45-77 45C44 4 14-33 15-96c1-61 26-98 85-98zm52 81c6-60-76-77-97-28-3 7-6 17-6 28h103" id="ak"/><path d="M206 0h-36l-40-164L89 0H53L-1-190h32L70-26l43-164h34l41 164 42-164h31" id="al"/><path d="M179-190L93 31C79 59 56 82 12 73V49c39 6 53-20 64-50L1-190h34L92-34l54-156h33" id="am"/><g id="i"><use transform="matrix(0.05,0,0,0.05,0,0)" xlink:href="#ai"/><use transform="matrix(0.05,0,0,0.05,14,0)" xlink:href="#ac"/><use transform="matrix(0.05,0,0,0.05,24,0)" xlink:href="#aj"/><use transform="matrix(0.05,0,0,0.05,29,0)" xlink:href="#ak"/><use transform="matrix(0.05,0,0,0.05,39,0)" xlink:href="#al"/><use transform="matrix(0.05,0,0,0.05,51.95,0)" xlink:href="#ac"/><use transform="matrix(0.05,0,0,0.05,61.95,0)" xlink:href="#am"/></g><path fill="#333" d="M266 0h-40l-56-210L115 0H75L2-248h35L96-30l15-64 43-154h32l59 218 59-218h35" id="an"/><g id="j"><use transform="matrix(0.05,0,0,0.05,0,0)" xlink:href="#H"/><use transform="matrix(0.05,0,0,0.05,11.35,0)" xlink:href="#an"/><use transform="matrix(0.05,0,0,0.05,28.299999999999997,0)" xlink:href="#N"/></g><path fill="#333" d="M30 0v-248h33v221h125V0H30" id="ao"/><path fill="#333" d="M115-194c53 0 69 39 70 98 0 66-23 100-70 100C84 3 66-7 56-30L54 0H23l1-261h32v101c10-23 28-34 59-34zm-8 174c40 0 45-34 45-75 0-40-5-75-45-74-42 0-51 32-51 76 0 43 10 73 51 73" id="ap"/><path fill="#333" d="M85-194c31 0 48 13 60 33l-1-100h32l1 261h-30c-2-10 0-23-3-31C134-8 116 4 85 4 32 4 16-35 15-94c0-66 23-100 70-100zm9 24c-40 0-46 34-46 75 0 40 6 74 45 74 42 0 51-32 51-76 0-42-9-74-50-73" id="aq"/><g id="k"><use transform="matrix(0.05,0,0,0.05,0,0)" xlink:href="#ao"/><use transform="matrix(0.05,0,0,0.05,10,0)" xlink:href="#J"/><use transform="matrix(0.05,0,0,0.05,20,0)" xlink:href="#I"/><use transform="matrix(0.05,0,0,0.05,34.95,0)" xlink:href="#ap"/><use transform="matrix(0.05,0,0,0.05,44.95,0)" xlink:href="#aq"/><use transform="matrix(0.05,0,0,0.05,54.95,0)" xlink:href="#J"/></g><path fill="#333" d="M30-248c118-7 216 8 213 122C240-48 200 0 122 0H30v-248zM63-27c89 8 146-16 146-99s-60-101-146-95v194" id="ar"/><path fill="#333" d="M179-190L93 31C79 59 56 82 12 73V49c39 6 53-20 64-50L1-190h34L92-34l54-156h33" id="as"/><path fill="#333" d="M160-131c35 5 61 23 61 61C221 17 115-2 30 0v-248c76 3 177-17 177 60 0 33-19 50-47 57zm-97-11c50-1 110 9 110-42 0-47-63-36-110-37v79zm0 115c55-2 124 14 124-45 0-56-70-42-124-44v89" id="at"/><g id="l"><use transform="matrix(0.05,0,0,0.05,0,0)" xlink:href="#ar"/><use transform="matrix(0.05,0,0,0.05,12.950000000000001,0)" xlink:href="#as"/><use transform="matrix(0.05,0,0,0.05,21.950000000000003,0)" xlink:href="#M"/><use transform="matrix(0.05,0,0,0.05,31.950000000000003,0)" xlink:href="#J"/><use transform="matrix(0.05,0,0,0.05,41.95,0)" xlink:href="#I"/><use transform="matrix(0.05,0,0,0.05,56.900000000000006,0)" xlink:href="#L"/><use transform="matrix(0.05,0,0,0.05,66.9,0)" xlink:href="#ar"/><use transform="matrix(0.05,0,0,0.05,79.85000000000001,0)" xlink:href="#at"/></g><g id="m"><use transform="matrix(0.05,0,0,0.05,0,0)" xlink:href="#an"/><use transform="matrix(0.05,0,0,0.05,16.599999999999998,0)" xlink:href="#R"/><use transform="matrix(0.05,0,0,0.05,26.599999999999994,0)" xlink:href="#ap"/></g><path fill="#333" d="M206 0h-36l-40-164L89 0H53L-1-190h32L70-26l43-164h34l41 164 42-164h31" id="au"/><path fill="#333" d="M135-143c-3-34-86-38-87 0 15 53 115 12 119 90S17 21 10-45l28-5c4 36 97 45 98 0-10-56-113-15-118-90-4-57 82-63 122-42 12 7 21 19 24 35" id="av"/><g id="n"><use transform="matrix(0.05,0,0,0.05,0,0)" xlink:href="#at"/><use transform="matrix(0.05,0,0,0.05,12,0)" xlink:href="#T"/><use transform="matrix(0.05,0,0,0.05,17.95,0)" xlink:href="#L"/><use transform="matrix(0.05,0,0,0.05,27.950000000000003,0)" xlink:href="#au"/><use transform="matrix(0.05,0,0,0.05,40.9,0)" xlink:href="#av"/><use transform="matrix(0.05,0,0,0.05,49.9,0)" xlink:href="#R"/><use transform="matrix(0.05,0,0,0.05,59.900000000000006,0)" xlink:href="#T"/></g><path fill="#333" d="M63-220v92h138v28H63V0H30v-248h175v28H63" id="aw"/><g id="o"><use transform="matrix(0.05,0,0,0.05,0,0)" xlink:href="#aw"/><use transform="matrix(0.05,0,0,0.05,10.950000000000001,0)" xlink:href="#T"/><use transform="matrix(0.05,0,0,0.05,16.900000000000002,0)" xlink:href="#L"/><use transform="matrix(0.05,0,0,0.05,26.900000000000002,0)" xlink:href="#M"/><use transform="matrix(0.05,0,0,0.05,36.900000000000006,0)" xlink:href="#S"/></g><path fill="#333" d="M30 0v-248h187v28H63v79h144v27H63v87h162V0H30" id="ax"/><g id="p"><use transform="matrix(0.05,0,0,0.05,0,0)" xlink:href="#ax"/><use transform="matrix(0.05,0,0,0.05,12,0)" xlink:href="#M"/><use transform="matrix(0.05,0,0,0.05,22,0)" xlink:href="#aq"/></g><path fill="#333" d="M233-177c-1 41-23 64-60 70L243 0h-38l-65-103H63V0H30v-248c88 3 205-21 203 71zM63-129c60-2 137 13 137-47 0-61-80-42-137-45v92" id="ay"/><path fill="#333" d="M33 0v-38h34V0H33" id="az"/><path fill="#333" d="M24-231v-30h32v30H24zM-9 49c24 4 33-6 33-30v-209h32V24c2 40-23 58-65 49V49" id="aA"/><g id="q"><use transform="matrix(0.05,0,0,0.05,0,0)" xlink:href="#ay"/><use transform="matrix(0.05,0,0,0.05,12.950000000000001,0)" xlink:href="#R"/><use transform="matrix(0.05,0,0,0.05,22.950000000000003,0)" xlink:href="#J"/><use transform="matrix(0.05,0,0,0.05,32.95,0)" xlink:href="#W"/><use transform="matrix(0.05,0,0,0.05,41.95,0)" xlink:href="#S"/><use transform="matrix(0.05,0,0,0.05,46.95,0)" xlink:href="#az"/><use transform="matrix(0.05,0,0,0.05,51.95,0)" xlink:href="#aA"/><use transform="matrix(0.05,0,0,0.05,55.900000000000006,0)" xlink:href="#av"/></g><g id="r"><use transform="matrix(0.05,0,0,0.05,0,0)" xlink:href="#ar"/><use transform="matrix(0.05,0,0,0.05,12.950000000000001,0)" xlink:href="#as"/><use transform="matrix(0.05,0,0,0.05,21.950000000000003,0)" xlink:href="#M"/><use transform="matrix(0.05,0,0,0.05,31.950000000000003,0)" xlink:href="#J"/><use transform="matrix(0.05,0,0,0.05,41.95,0)" xlink:href="#I"/><use transform="matrix(0.05,0,0,0.05,56.900000000000006,0)" xlink:href="#O"/><use transform="matrix(0.05,0,0,0.05,60.85,0)" xlink:href="#W"/></g><path fill="#333" d="M30-248c87 1 191-15 191 75 0 78-77 80-158 76V0H30v-248zm33 125c57 0 124 11 124-50 0-59-68-47-124-48v98" id="aB"/><path fill="#333" d="M33 0v-248h34V0H33" id="aC"/><g id="s"><use transform="matrix(0.05,0,0,0.05,0,0)" xlink:href="#H"/><use transform="matrix(0.05,0,0,0.05,12,0)" xlink:href="#aB"/><use transform="matrix(0.05,0,0,0.05,24,0)" xlink:href="#aC"/></g><path fill="#333" d="M212-179c-10-28-35-45-73-45-59 0-87 40-87 99 0 60 29 101 89 101 43 0 62-24 78-52l27 14C228-24 195 4 139 4 59 4 22-46 18-125c-6-104 99-153 187-111 19 9 31 26 39 46" id="aD"/><g id="t"><use transform="matrix(0.05,0,0,0.05,0,0)" xlink:href="#aD"/><use transform="matrix(0.05,0,0,0.05,12.950000000000001,0)" xlink:href="#J"/><use transform="matrix(0.05,0,0,0.05,22.950000000000003,0)" xlink:href="#Q"/><use transform="matrix(0.05,0,0,0.05,26.900000000000002,0)" xlink:href="#Q"/><use transform="matrix(0.05,0,0,0.05,30.85,0)" xlink:href="#av"/></g><path fill="#333" d="M143 0L79-87 56-68V0H24v-261h32v163l83-92h37l-77 82L181 0h-38" id="aE"/><g id="u"><use transform="matrix(0.05,0,0,0.05,0,0)" xlink:href="#at"/><use transform="matrix(0.05,0,0,0.05,12,0)" xlink:href="#J"/><use transform="matrix(0.05,0,0,0.05,22,0)" xlink:href="#W"/><use transform="matrix(0.05,0,0,0.05,31,0)" xlink:href="#aE"/><use transform="matrix(0.05,0,0,0.05,40,0)" xlink:href="#R"/><use transform="matrix(0.05,0,0,0.05,50,0)" xlink:href="#M"/><use transform="matrix(0.05,0,0,0.05,60,0)" xlink:href="#aq"/></g><path fill="#333" d="M190 0L58-211 59 0H30v-248h39L202-35l-2-213h31V0h-41" id="aF"/><g id="v"><use transform="matrix(0.05,0,0,0.05,0,0)" xlink:href="#aF"/><use transform="matrix(0.05,0,0,0.05,12.950000000000001,0)" xlink:href="#L"/><use transform="matrix(0.05,0,0,0.05,22.950000000000003,0)" xlink:href="#aq"/><use transform="matrix(0.05,0,0,0.05,32.95,0)" xlink:href="#R"/><use transform="matrix(0.05,0,0,0.05,42.95,0)" xlink:href="#az"/><use transform="matrix(0.05,0,0,0.05,47.95,0)" xlink:href="#aA"/><use transform="matrix(0.05,0,0,0.05,51.900000000000006,0)" xlink:href="#av"/></g><path fill="#333" d="M84 4C-5 8 30-112 23-190h32v120c0 31 7 50 39 49 72-2 45-101 50-169h31l1 190h-30c-1-10 1-25-2-33-11 22-28 36-60 37" id="aG"/><path fill="#333" d="M106-169C34-169 62-67 57 0H25v-261h32l-1 103c12-21 28-36 61-36 89 0 53 116 60 194h-32v-121c2-32-8-49-39-48" id="aH"/><g id="w"><use transform="matrix(0.05,0,0,0.05,0,0)" xlink:href="#aD"/><use transform="matrix(0.05,0,0,0.05,12.950000000000001,0)" xlink:href="#Q"/><use transform="matrix(0.05,0,0,0.05,16.900000000000002,0)" xlink:href="#L"/><use transform="matrix(0.05,0,0,0.05,26.900000000000002,0)" xlink:href="#aG"/><use transform="matrix(0.05,0,0,0.05,36.900000000000006,0)" xlink:href="#aq"/><use transform="matrix(0.05,0,0,0.05,46.900000000000006,0)" xlink:href="#an"/><use transform="matrix(0.05,0,0,0.05,63.2,0)" xlink:href="#J"/><use transform="matrix(0.05,0,0,0.05,73.2,0)" xlink:href="#S"/><use transform="matrix(0.05,0,0,0.05,78.2,0)" xlink:href="#W"/><use transform="matrix(0.05,0,0,0.05,87.2,0)" xlink:href="#aH"/></g><g id="x"><use transform="matrix(0.05,0,0,0.05,0,0)" xlink:href="#aC"/><use transform="matrix(0.05,0,0,0.05,5,0)" xlink:href="#aq"/><use transform="matrix(0.05,0,0,0.05,15,0)" xlink:href="#R"/><use transform="matrix(0.05,0,0,0.05,25,0)" xlink:href="#M"/><use transform="matrix(0.05,0,0,0.05,35,0)" xlink:href="#S"/><use transform="matrix(0.05,0,0,0.05,40,0)" xlink:href="#O"/><use transform="matrix(0.05,0,0,0.05,43.95,0)" xlink:href="#S"/><use transform="matrix(0.05,0,0,0.05,48.95,0)" xlink:href="#as"/></g><g id="y"><use transform="matrix(0.05,0,0,0.05,0,0)" xlink:href="#J"/><use transform="matrix(0.05,0,0,0.05,10,0)" xlink:href="#M"/><use transform="matrix(0.05,0,0,0.05,20,0)" xlink:href="#aq"/></g><g id="z"><use transform="matrix(0.05,0,0,0.05,0,0)" xlink:href="#H"/><use transform="matrix(0.05,0,0,0.05,12,0)" xlink:href="#W"/><use transform="matrix(0.05,0,0,0.05,21,0)" xlink:href="#W"/><use transform="matrix(0.05,0,0,0.05,30,0)" xlink:href="#R"/><use transform="matrix(0.05,0,0,0.05,40,0)" xlink:href="#av"/><use transform="matrix(0.05,0,0,0.05,49,0)" xlink:href="#av"/></g><path fill="#333" d="M240 0l2-218c-23 76-54 145-80 218h-23L58-218 59 0H30v-248h44l77 211c21-75 51-140 76-211h43V0h-30" id="aI"/><g id="A"><use transform="matrix(0.05,0,0,0.05,0,0)" xlink:href="#aI"/><use transform="matrix(0.05,0,0,0.05,14.950000000000001,0)" xlink:href="#J"/><use transform="matrix(0.05,0,0,0.05,24.950000000000003,0)" xlink:href="#M"/><use transform="matrix(0.05,0,0,0.05,34.95,0)" xlink:href="#J"/><use transform="matrix(0.05,0,0,0.05,44.95,0)" xlink:href="#U"/><use transform="matrix(0.05,0,0,0.05,54.95,0)" xlink:href="#R"/><use transform="matrix(0.05,0,0,0.05,64.95,0)" xlink:href="#I"/><use transform="matrix(0.05,0,0,0.05,79.9,0)" xlink:href="#R"/><use transform="matrix(0.05,0,0,0.05,89.9,0)" xlink:href="#M"/><use transform="matrix(0.05,0,0,0.05,99.9,0)" xlink:href="#S"/></g><g id="B"><use transform="matrix(0.05,0,0,0.05,0,0)" xlink:href="#X"/><use transform="matrix(0.05,0,0,0.05,5.95,0)" xlink:href="#aC"/><use transform="matrix(0.05,0,0,0.05,10.95,0)" xlink:href="#H"/><use transform="matrix(0.05,0,0,0.05,22.95,0)" xlink:href="#aI"/><use transform="matrix(0.05,0,0,0.05,37.9,0)" xlink:href="#Z"/></g><g id="C"><use transform="matrix(0.05,0,0,0.05,0,0)" xlink:href="#aC"/><use transform="matrix(0.05,0,0,0.05,5,0)" xlink:href="#H"/><use transform="matrix(0.05,0,0,0.05,17,0)" xlink:href="#aI"/></g><path fill="#333" d="M67-125c0 53 21 87 73 88 37 1 54-22 65-47l45 17C233-25 199 4 140 4 58 4 20-42 15-125 8-235 124-281 211-232c18 10 29 29 36 50l-46 12c-8-25-30-41-62-41-52 0-71 34-72 86" id="aJ"/><path fill="#333" d="M133-34C117-15 103 5 69 4 32 3 11-16 11-54c-1-60 55-63 116-61 1-26-3-47-28-47-18 1-26 9-28 27l-52-2c7-38 36-58 82-57s74 22 75 68l1 82c-1 14 12 18 25 15v27c-30 8-71 5-69-32zm-48 3c29 0 43-24 42-57-32 0-66-3-65 30 0 17 8 27 23 27" id="aK"/><path fill="#333" d="M135-150c-39-12-60 13-60 57V0H25l-1-190h47c2 13-1 29 3 40 6-28 27-53 61-41v41" id="aL"/><path fill="#333" d="M135-194c53 0 70 44 70 98 0 56-19 98-73 100-31 1-45-17-59-34 3 33 2 69 2 105H25l-1-265h48c2 10 0 23 3 31 11-24 29-35 60-35zM114-30c33 0 39-31 40-66 0-38-9-64-40-64-56 0-55 130 0 130" id="aM"/><path fill="#333" d="M110-194c64 0 96 36 96 99 0 64-35 99-97 99-61 0-95-36-95-99 0-62 34-99 96-99zm-1 164c35 0 45-28 45-65 0-40-10-65-43-65-34 0-45 26-45 65 0 36 10 65 43 65" id="aN"/><path fill="#333" d="M25 0v-261h50V0H25" id="aO"/><path fill="#333" d="M25-224v-37h50v37H25zM25 0v-190h50V0H25" id="aP"/><path fill="#333" d="M135-194c87-1 58 113 63 194h-50c-7-57 23-157-34-157-59 0-34 97-39 157H25l-1-190h47c2 12-1 28 3 38 12-26 28-41 61-42" id="aQ"/><path fill="#333" d="M195-6C206 82 75 100 31 46c-4-6-6-13-8-21l49-6c3 16 16 24 34 25 40 0 42-37 40-79-11 22-30 35-61 35-53 0-70-43-70-97 0-56 18-96 73-97 30 0 46 14 59 34l2-30h47zm-90-29c32 0 41-27 41-63 0-35-9-62-40-62-32 0-39 29-40 63 0 36 9 62 39 62" id="aR"/><g id="D"><use transform="matrix(0.056172839506172835,0,0,0.056172839506172835,0,0)" xlink:href="#aJ"/><use transform="matrix(0.056172839506172835,0,0,0.056172839506172835,14.548765432098763,0)" xlink:href="#aK"/><use transform="matrix(0.056172839506172835,0,0,0.056172839506172835,25.78333333333333,0)" xlink:href="#aL"/><use transform="matrix(0.056172839506172835,0,0,0.056172839506172835,33.64753086419753,0)" xlink:href="#aM"/><use transform="matrix(0.056172839506172835,0,0,0.056172839506172835,45.94938271604938,0)" xlink:href="#aN"/><use transform="matrix(0.056172839506172835,0,0,0.056172839506172835,58.25123456790123,0)" xlink:href="#aN"/><use transform="matrix(0.056172839506172835,0,0,0.056172839506172835,70.55308641975307,0)" xlink:href="#aO"/><use transform="matrix(0.056172839506172835,0,0,0.056172839506172835,76.17037037037035,0)" xlink:href="#aP"/><use transform="matrix(0.056172839506172835,0,0,0.056172839506172835,81.78765432098763,0)" xlink:href="#aQ"/><use transform="matrix(0.056172839506172835,0,0,0.056172839506172835,94.08950617283948,0)" xlink:href="#aR"/></g><path fill="#333" d="M275 0h-61l-44-196L126 0H64L0-248h53L97-49l45-199h58l43 199 44-199h52" id="aS"/><path fill="#333" d="M185-48c-13 30-37 53-82 52C43 2 14-33 14-96s30-98 90-98c62 0 83 45 84 108H66c0 31 8 55 39 56 18 0 30-7 34-22zm-45-69c5-46-57-63-70-21-2 6-4 13-4 21h74" id="aT"/><path fill="#333" d="M135-194c52 0 70 43 70 98 0 56-19 99-73 100-30 1-46-15-58-35L72 0H24l1-261h50v104c11-23 29-37 60-37zM114-30c31 0 40-27 40-66 0-37-7-63-39-63s-41 28-41 65c0 36 8 64 40 64" id="aU"/><g id="E"><use transform="matrix(0.056172839506172835,0,0,0.056172839506172835,0,0)" xlink:href="#aS"/><use transform="matrix(0.056172839506172835,0,0,0.056172839506172835,18.64938271604938,0)" xlink:href="#aT"/><use transform="matrix(0.056172839506172835,0,0,0.056172839506172835,29.883950617283947,0)" xlink:href="#aU"/></g><path fill="#333" d="M199 0l-22-63H83L61 0H9l90-248h61L250 0h-51zm-33-102l-36-108c-10 38-24 72-36 108h72" id="aV"/><path fill="#333" d="M190-63c-7 42-38 67-86 67-59 0-84-38-90-98-12-110 154-137 174-36l-49 2c-2-19-15-32-35-32-30 0-35 28-38 64-6 74 65 87 74 30" id="aW"/><path fill="#333" d="M115-3C79 11 28 4 28-45v-112H4v-33h27l15-45h31v45h36v33H77v99c-1 23 16 31 38 25v30" id="aX"/><g id="F"><use transform="matrix(0.056172839506172835,0,0,0.056172839506172835,0,0)" xlink:href="#aV"/><use transform="matrix(0.056172839506172835,0,0,0.056172839506172835,14.548765432098763,0)" xlink:href="#aM"/><use transform="matrix(0.056172839506172835,0,0,0.056172839506172835,26.850617283950612,0)" xlink:href="#aM"/><use transform="matrix(0.056172839506172835,0,0,0.056172839506172835,39.15246913580246,0)" xlink:href="#aO"/><use transform="matrix(0.056172839506172835,0,0,0.056172839506172835,44.76975308641975,0)" xlink:href="#aP"/><use transform="matrix(0.056172839506172835,0,0,0.056172839506172835,50.38703703703703,0)" xlink:href="#aW"/><use transform="matrix(0.056172839506172835,0,0,0.056172839506172835,61.6216049382716,0)" xlink:href="#aK"/><use transform="matrix(0.056172839506172835,0,0,0.056172839506172835,72.85617283950617,0)" xlink:href="#aX"/><use transform="matrix(0.056172839506172835,0,0,0.056172839506172835,79.54074074074074,0)" xlink:href="#aP"/><use transform="matrix(0.056172839506172835,0,0,0.056172839506172835,85.15802469135802,0)" xlink:href="#aN"/><use transform="matrix(0.056172839506172835,0,0,0.056172839506172835,97.45987654320987,0)" xlink:href="#aQ"/></g><path fill="#333" d="M114-157C55-157 80-60 75 0H25v-261h50l-1 109c12-26 28-41 61-42 86-1 58 113 63 194h-50c-7-57 23-157-34-157" id="aY"/><path fill="#333" d="M85 4C-2 5 27-109 22-190h50c7 57-23 150 33 157 60-5 35-97 40-157h50l1 190h-47c-2-12 1-28-3-38-12 25-28 42-61 42" id="aZ"/><g id="G"><use transform="matrix(0.056172839506172835,0,0,0.056172839506172835,0,0)" xlink:href="#aV"/><use transform="matrix(0.056172839506172835,0,0,0.056172839506172835,14.548765432098763,0)" xlink:href="#aL"/><use transform="matrix(0.056172839506172835,0,0,0.056172839506172835,22.41296296296296,0)" xlink:href="#aW"/><use transform="matrix(0.056172839506172835,0,0,0.056172839506172835,33.64753086419753,0)" xlink:href="#aY"/><use transform="matrix(0.056172839506172835,0,0,0.056172839506172835,45.94938271604938,0)" xlink:href="#aP"/><use transform="matrix(0.056172839506172835,0,0,0.056172839506172835,51.56666666666666,0)" xlink:href="#aX"/><use transform="matrix(0.056172839506172835,0,0,0.056172839506172835,58.25123456790123,0)" xlink:href="#aT"/><use transform="matrix(0.056172839506172835,0,0,0.056172839506172835,69.48580246913579,0)" xlink:href="#aW"/><use transform="matrix(0.056172839506172835,0,0,0.056172839506172835,80.72037037037036,0)" xlink:href="#aX"/><use transform="matrix(0.056172839506172835,0,0,0.056172839506172835,87.40493827160493,0)" xlink:href="#aZ"/><use transform="matrix(0.056172839506172835,0,0,0.056172839506172835,99.70679012345678,0)" xlink:href="#aL"/><use transform="matrix(0.056172839506172835,0,0,0.056172839506172835,107.57098765432099,0)" xlink:href="#aT"/></g></defs></g></svg>