<svg xmlns="http://www.w3.org/2000/svg" xmlns:xlink="http://www.w3.org/1999/xlink" xmlns:lucid="lucid" width="1837.57" height="503"><g transform="translate(-3.9330708540646757 1.5000000032336565)" lucid:page-tab-id="5vFKwq7wY26A"><path d="M0 0h5484.6v2581.67H0z" fill="#fff"/><path d="M5.43 6a6 6 0 0 1 6-6H1834a6 6 0 0 1 6 6v488a6 6 0 0 1-6 6H11.43a6 6 0 0 1-6-6z" stroke="#5e5e5e" stroke-width="3" fill="#fff"/><path d="M150.64 300c5.4 0 9.8-4.36 9.8-9.65v-1.13c-3.97-30.55-21.35-55.34-55-55.34-33.67 0-51.5 21.03-54.9 55.4-.1 0-.1.08-.1.08-.45 5.35 3.5 10.1 8.9 10.64h91.3z" stroke="#000" stroke-opacity="0" fill="url(#a)"/><path d="M105.4 241.16c-6.2 0-11.5-1.54-16.7-4.88l16.7 42.84 16.42-42.58c-5.16 3.2-10.33 4.67-16.42 4.62z" stroke="#000" stroke-opacity="0" fill="#fff" fill-opacity=".8"/><path d="M136.34 210.54c0 16.86-13.8 30.54-30.8 30.54s-30.8-13.68-30.8-30.54S88.54 180 105.54 180s30.8 13.68 30.8 30.54z" stroke="#000" stroke-opacity="0" fill="url(#b)"/><use xlink:href="#c" transform="matrix(1,0,0,1,20.433070866141634,309) translate(61.099999999999994 14.4)"/><path d="M106.43 413.96l.07.82.18.76.3.73.4.67.52.6.6.5.67.4.72.3.75.2.82.06H244.6v2H111.4l-1.06-.08-1.07-.26-1.02-.42-.93-.57-.84-.72-.7-.83-.6-.94-.4-1.02-.26-1.06-.1-1.06V301h2zm400 .08l-.08 1.06-.26 1.06-.43 1.02-.57.94-.72.83-.83.72-.94.57-1 .42-1.07.26-1.06.08h-133.2v-2h133.12l.8-.06.78-.2.72-.3.67-.4.6-.5.5-.6.4-.67.3-.73.2-.76.06-.82V318.5h2z" stroke="#5e5e5e" stroke-width=".05" fill="#5e5e5e"/><path d="M106.43 301.03h-2V300h2z" fill="#5e5e5e"/><path d="M106.46 301.05h-2.05v-1.07h2.06zm-2-1.03v.98h1.95v-.98z" stroke="#5e5e5e" stroke-width=".05" fill="#5e5e5e"/><path d="M510.07 317.5h-9.27l4.63-14.26z" fill="#5e5e5e"/><path d="M511.44 318.5h-12.02l6-18.5zm-9.27-2h6.52l-3.27-10.03z" stroke="#5e5e5e" stroke-width=".05" fill="#5e5e5e"/><use xlink:href="#d" transform="matrix(1,0,0,1,244.60807086614165,398.4) translate(0.005000000000002558 14.4)"/><use xlink:href="#e" transform="matrix(1,0,0,1,244.60807086614165,398.4) translate(52.80500000000001 14.4)"/><use xlink:href="#f" transform="matrix(1,0,0,1,244.60807086614165,398.4) translate(33.355000000000004 36)"/><use xlink:href="#g" transform="matrix(1,0,0,1,244.60807086614165,398.4) translate(63.355000000000004 36)"/><path d="M850.43 180h120v120h-120V180z" stroke="#000" stroke-opacity="0" fill="url(#h)"/><path d="M895.4 217.43h3.8v3.8h-3.8v18.63c0-.42.25-.9.6-1.24l5.6-5.6 2.64 2.63-4.3 4.3 4.3 4.28-2.64 2.64-5.62-5.6c-.33-.34-.57-.84-.57-1.33v18.7h3.8v3.8h-3.8v16.82c0 .66-.32 1.24-.9 1.65-.25.18-.58.26-1 .26-.24 0-.5-.08-.82-.17l-22.45-11.3c-.66-.33-1.08-.9-1.08-1.65v-54.33c0-.66.33-1.3.9-1.65l22.55-13.1c.58-.33 1.32-.33 1.9 0 .58.33.9 1 .9 1.65zm56.3-3.7v54.32c0 .74-.4 1.32-1.06 1.65L928.18 281c-.33.08-.57.16-.82.16-.4 0-.75-.08-1-.25-.57-.4-.9-.98-.9-1.64v-16.8h-3.8v-3.8h3.8v-18.72c0 .5-.25 1-.58 1.32l-5.6 5.6-2.65-2.63 4.3-4.3-4.3-4.28 2.64-2.64 5.6 5.62c.34.33.6.82.6 1.24v-18.63h-3.8v-3.8h3.8v-16.8c0-.67.32-1.33.9-1.66.58-.33 1.32-.33 1.9 0l22.53 13.1c.58.34.9 1 .9 1.65zm-60-9.9l-18.83 10.97v52.1l18.82 9.3zM948 214.8l-18.83-10.97v72.38l18.83-9.3zm-32.03 16.4l-7.52 20.6-3.55-1.23 7.5-20.6zm-13.05-9.97v-3.8h5.6v3.8zm9.4 0v-3.8h5.63v3.8zm-9.4 41.22v-3.8h5.6v3.8zm9.4 0v-3.8h5.63v3.8z" stroke="#000" stroke-opacity="0" fill="#fff"/><use xlink:href="#i" transform="matrix(1,0,0,1,820.4330708661416,309) translate(2.049999999999997 14.4)"/><use xlink:href="#j" transform="matrix(1,0,0,1,820.4330708661416,309) translate(73 14.4)"/><use xlink:href="#k" transform="matrix(1,0,0,1,820.4330708661416,309) translate(107 14.4)"/><path d="M623.96 61h-112.5l-.8.06-.77.2-.73.3-.67.4-.6.5-.5.6-.42.67-.3.73-.18.76-.07.82V179h-2V65.96l.1-1.06.24-1.06.42-1.02.57-.94.7-.83.85-.72.93-.57 1.02-.42 1.07-.26 1.05-.08h112.56zm281.57-1.92l1.07.26 1 .42.95.57.84.72.7.83.57.94.42 1.02.25 1.06.08 1.06v95.54h-2V66.04l-.06-.82-.2-.76-.28-.73-.42-.67-.5-.6-.6-.5-.68-.4-.72-.3-.76-.2-.83-.06H791.9v-2h112.57z" stroke="#5e5e5e" stroke-width=".05" fill="#5e5e5e"/><path d="M506.43 180h-2v-1.03h2z" fill="#5e5e5e"/><path d="M506.46 180.03h-2.05v-1.08h2.06zm-2-1.03v.97h1.95V179z" stroke="#5e5e5e" stroke-width=".05" fill="#5e5e5e"/><path d="M910.43 176.76l-4.63-14.26h9.27z" fill="#5e5e5e"/><path d="M910.43 180l-6-18.5h12.02zm-3.26-16.5l3.26 10.03 3.26-10.03z" stroke="#5e5e5e" stroke-width=".05" fill="#5e5e5e"/><use xlink:href="#l" transform="matrix(1,0,0,1,623.9580708661416,27.6) translate(0.0049999999999954525 14.4)"/><use xlink:href="#m" transform="matrix(1,0,0,1,623.9580708661416,27.6) translate(27.004999999999995 14.4)"/><use xlink:href="#n" transform="matrix(1,0,0,1,623.9580708661416,27.6) translate(80.005 14.4)"/><use xlink:href="#o" transform="matrix(1,0,0,1,623.9580708661416,27.6) translate(132.95499999999998 14.4)"/><use xlink:href="#p" transform="matrix(1,0,0,1,623.9580708661416,27.6) translate(6.929999999999993 36)"/><use xlink:href="#q" transform="matrix(1,0,0,1,623.9580708661416,27.6) translate(26.929999999999993 36)"/><use xlink:href="#r" transform="matrix(1,0,0,1,623.9580708661416,27.6) translate(78.42999999999999 36)"/><use xlink:href="#s" transform="matrix(1,0,0,1,623.9580708661416,27.6) translate(132.02999999999997 36)"/><use xlink:href="#t" transform="matrix(1,0,0,1,623.9580708661416,27.6) translate(34.50499999999999 57.6)"/><use xlink:href="#u" transform="matrix(1,0,0,1,623.9580708661416,27.6) translate(58.50499999999999 57.6)"/><use xlink:href="#v" transform="matrix(1,0,0,1,623.9580708661416,27.6) translate(73.505 57.6)"/><path d="M1233 180h120v120h-120V180z" stroke="#fff" stroke-opacity="0" stroke-width="2" fill="#d86613"/><path d="M1329.8 280h-19.72c-.64 0-1.15-.32-1.4-.88l-27.92-58.32h-11.78c-.9 0-1.6-.72-1.6-1.6v-17.6c0-.88.7-1.6 1.6-1.6h24.65c.64 0 1.15.32 1.4.88l27.8 58.32h6.97c.9 0 1.6.72 1.6 1.6v17.6c0 .88-.7 1.6-1.6 1.6zm-18.7-3.2h17.1v-14.4h-6.4c-.65 0-1.16-.32-1.4-.88l-27.8-58.32h-22.02v14.4h11.2c.64 0 1.16.32 1.48.88z" stroke="#fff" stroke-opacity="0" stroke-width="2" fill="#fff"/><path d="M1276.95 280h-20.78c-.57 0-1.06-.3-1.38-.73-.33-.54-.33-1.12-.08-1.6l21.77-45.46c.24-.58.8-.92 1.4-.92.65 0 1.18.34 1.46.88l10.4 21.43c.26.43.26.92 0 1.4L1278.4 279c-.2.63-.78 1.02-1.45 1.02zm-18.23-3.22h17.24l10.6-22.36-8.62-17.88z" stroke="#fff" stroke-opacity="0" stroke-width="2" fill="#fff"/><use xlink:href="#w" transform="matrix(1,0,0,1,1202.9967911564722,309) translate(34.875 14.4)"/><use xlink:href="#x" transform="matrix(1,0,0,1,1202.9967911564722,309) translate(80.175 14.4)"/><path d="M1028 241h-56.57v-2H1028zm186.5 0h-39.06v-2h39.05z" stroke="#5e5e5e" stroke-width=".05" fill="#5e5e5e"/><path d="M971.46 241h-1.03v-2h1.03z" fill="#5e5e5e"/><path d="M971.48 241.03h-1.07v-2.06h1.08zm-1.02-2v1.94h.97v-1.94z" stroke="#5e5e5e" stroke-width=".05" fill="#5e5e5e"/><path d="M1229.76 240l-14.27 4.63v-9.26z" fill="#5e5e5e"/><path d="M1233 240l-18.5 6v-12zm-16.5 3.26l10.03-3.26-10.04-3.26z" stroke="#5e5e5e" stroke-width=".05" fill="#5e5e5e"/><use xlink:href="#y" transform="matrix(1,0,0,1,1027.989931011307,207.6) translate(0.0049999999999954525 14.4)"/><use xlink:href="#z" transform="matrix(1,0,0,1,1027.989931011307,207.6) translate(53.605 14.4)"/><use xlink:href="#A" transform="matrix(1,0,0,1,1027.989931011307,207.6) translate(87.60499999999999 14.4)"/><use xlink:href="#B" transform="matrix(1,0,0,1,1027.989931011307,207.6) translate(0.3049999999999926 36)"/><use xlink:href="#C" transform="matrix(1,0,0,1,1027.989931011307,207.6) translate(64.20499999999998 36)"/><use xlink:href="#D" transform="matrix(1,0,0,1,1027.989931011307,207.6) translate(132.15499999999997 36)"/><use xlink:href="#E" transform="matrix(1,0,0,1,1027.989931011307,207.6) translate(34.80499999999999 57.6)"/><use xlink:href="#F" transform="matrix(1,0,0,1,1027.989931011307,207.6) translate(77.655 57.6)"/><path d="M1665.43 180h120v120h-120V180z" stroke="#fff" stroke-opacity="0" stroke-width="2" fill="#3b48cc"/><path d="M1745.85 244.78l-10.62 10.55c2.02-.56 3.65-1.2 5.5-2.24 1.1.63 1.7 1.67 1.9 2.87 0 2.96-6.2 6.16-15.4 7.43-3.04.4-5.55.56-8.6.56h-1.57c-12.95-.23-22.42-4.3-22.42-8 .16-1.2.8-2.15 1.9-2.87 5 2.8 13.17 4.47 22.1 4.47h.16l.92-3.2h-1.08c-8.82 0-16.98-1.76-21.28-4.47-1.74-1.12-2.72-2.4-2.72-3.44v-7.44c4.9 3.76 14.63 5.68 24 5.68 1.25 0 2.5 0 3.75-.08l.92-3.2c-1.64.08-3.1.16-4.68.16-13.72 0-24-4.23-24-8 .16-1.27.8-2.23 1.9-2.87 4.4 2.5 11.2 4 18.88 4.4l.1-3.2c-7.55-.4-14.4-2-18.16-4.47-1.74-1.03-2.67-2.3-2.72-3.43v-7.36c4.9 3.76 14.63 5.68 24 5.68h.32l1.74-3.2h-2.06c-13.72 0-24-4.16-24-8 0-3.75 10.28-8 24-8 4.84 0 8.97.5 13.7 1.6h8.83c-4.85-2.94-13.12-4.78-22.53-4.78-13.17 0-27.2 3.9-27.2 11.2V224c.1 1.9.9 3.5 2.43 4.7-1.52 1.3-2.34 2.9-2.44 4.8v12.8c.1 2 .92 3.6 2.44 4.88-1.52 1.2-2.34 2.8-2.44 4.8v13.1c.43 7.04 14.2 10.8 27.2 10.8s26.78-3.76 27.22-10.88V255.88c-.06-1.9-.93-3.6-2.45-4.78 1.52-1.2 2.34-2.88 2.45-4.8zm-3.2 23.98c-.02 3.76-10.3 8-24 8-13.73 0-24-4.16-24-8v-7.35c4.88 3.68 14.63 5.68 24 5.68 9.35 0 19.1-2 23.98-5.67z" stroke="#fff" stroke-opacity="0" stroke-width="2" fill="#fff"/><path d="M1701.43 224.03c0 1.1-.9 2-2 2s-2-.9-2-2 .9-2 2-2 2 .9 2 2zM1701.43 246.43c0 1.1-.9 2-2 2s-2-.9-2-2 .9-2 2-2 2 .9 2 2zM1701.43 268.83c0 1.1-.9 2-2 2s-2-.9-2-2 .9-2 2-2 2 .9 2 2zM1722.62 262.37c-.28 0-.52-.06-.8-.22-.64-.38-.92-1.14-.72-1.85l8.98-29.95h-9.06c-.9.06-1.6-.65-1.6-1.58 0-.27.03-.54.2-.76l9.58-19.2c.28-.56.8-.88 1.44-.88h20.8c.9-.06 1.6.65 1.65 1.52.03.22 0 .38-.05.6l-4.13 12.25h8.98c.88.05 1.6.75 1.6 1.63 0 .43-.15.76-.43 1.08l-35.2 36.82c-.33.38-.73.55-1.25.55zm1-35.18h8.62c.52 0 .96.2 1.3.6.27.43.4.92.23 1.4l-7.7 25.6 28.02-29.24h-7.46c-.88 0-1.65-.65-1.7-1.53 0-.2 0-.43.1-.6l4.08-12.3h-17.6z" stroke="#fff" stroke-opacity="0" stroke-width="2" fill="#fff"/><use xlink:href="#G" transform="matrix(1,0,0,1,1635.4330708661416,309) translate(8.599999999999994 14.4)"/><use xlink:href="#H" transform="matrix(1,0,0,1,1635.4330708661416,309) translate(79.55 14.4)"/><path d="M1406.32 61h-107.28l-.83.06-.75.2-.72.3-.67.4-.6.5-.5.6-.4.67-.32.73-.18.76-.06.82V179h-2V65.96l.08-1.06.26-1.06.42-1.02.57-.94.72-.83.83-.72.94-.57 1-.42 1.08-.26 1.06-.08h107.36zm314.2-1.92l1.08.26 1 .42.95.57.84.72.7.83.57.94.42 1.02.25 1.06.08 1.06v95.54h-2V66.04l-.06-.82-.18-.76-.32-.73-.4-.67-.5-.6-.6-.5-.68-.4-.72-.3-.77-.2-.8-.06h-107.3l.02-2h107.35z" stroke="#5e5e5e" stroke-width=".05" fill="#5e5e5e"/><path d="M1294 180h-2v-1.03h2z" fill="#5e5e5e"/><path d="M1294.02 180.03h-2.05v-1.08h2.05zm-2-1.03v.97h1.95V179z" stroke="#5e5e5e" stroke-width=".05" fill="#5e5e5e"/><path d="M1725.43 176.76l-4.63-14.26h9.27z" fill="#5e5e5e"/><path d="M1725.43 180l-6-18.5h12zm-3.26-16.5l3.26 10.03 3.26-10.03z" stroke="#5e5e5e" stroke-width=".05" fill="#5e5e5e"/><use xlink:href="#I" transform="matrix(1,0,0,1,1406.3149310113067,38.4) translate(0.0049999999999954525 14.4)"/><use xlink:href="#C" transform="matrix(1,0,0,1,1406.3149310113067,38.4) translate(69.955 14.4)"/><use xlink:href="#J" transform="matrix(1,0,0,1,1406.3149310113067,38.4) translate(137.905 14.4)"/><use xlink:href="#K" transform="matrix(1,0,0,1,1406.3149310113067,38.4) translate(3.055000000000007 36)"/><use xlink:href="#L" transform="matrix(1,0,0,1,1406.3149310113067,38.4) translate(43.05500000000001 36)"/><use xlink:href="#M" transform="matrix(1,0,0,1,1406.3149310113067,38.4) translate(85.905 36)"/><use xlink:href="#N" transform="matrix(1,0,0,1,1406.3149310113067,38.4) translate(110.905 36)"/><path d="M1399.9 241h-28.4v-2h28.4zm264.53 0h-45.9v-2h45.9z" stroke="#5e5e5e" stroke-width=".05" fill="#5e5e5e"/><path d="M1665.43 241h-1.02v-2h1.03z" fill="#5e5e5e"/><path d="M1665.46 241.03h-1.08v-2.06h1.08zm-1.03-2v1.94h.98v-1.94z" stroke="#5e5e5e" stroke-width=".05" fill="#5e5e5e"/><path d="M1370.5 244.63l-14.27-4.63 14.27-4.63z" fill="#5e5e5e"/><path d="M1371.5 246l-18.5-6 18.5-6zm-12.03-6l10.03 3.26v-6.52z" stroke="#5e5e5e" stroke-width=".05" fill="#5e5e5e"/><g><use xlink:href="#O" transform="matrix(1,0,0,1,1399.9149310113069,218.4) translate(0.0049999999999954525 14.4)"/><use xlink:href="#P" transform="matrix(1,0,0,1,1399.9149310113069,218.4) translate(94.855 14.4)"/><use xlink:href="#Q" transform="matrix(1,0,0,1,1399.9149310113069,218.4) translate(159.70499999999998 14.4)"/><use xlink:href="#p" transform="matrix(1,0,0,1,1399.9149310113069,218.4) translate(3.3799999999999812 36)"/><use xlink:href="#R" transform="matrix(1,0,0,1,1399.9149310113069,218.4) translate(23.37999999999998 36)"/><use xlink:href="#S" transform="matrix(1,0,0,1,1399.9149310113069,218.4) translate(67.37999999999998 36)"/><use xlink:href="#T" transform="matrix(1,0,0,1,1399.9149310113069,218.4) translate(125.27999999999999 36)"/><use xlink:href="#U" transform="matrix(1,0,0,1,1399.9149310113069,218.4) translate(145.27999999999997 36)"/><use xlink:href="#V" transform="matrix(1,0,0,1,1399.9149310113069,218.4) translate(180.27999999999997 36)"/></g><path d="M911 413.96l.06.82.2.76.3.73.4.67.5.6.6.5.67.4.73.3.76.2.82.06h65.03v2h-65.1l-1.07-.08-1.06-.26-1.02-.42-.94-.57-.83-.72-.72-.83-.57-.94-.42-1.02-.26-1.06-.08-1.06V318.5h2zm383 .08l-.1 1.06-.24 1.06-.42 1.02-.58.94-.7.83-.85.72-.92.57-1.02.42-1.07.26-1.06.08h-65.12v-2h65.04l.82-.06.76-.2.73-.3.66-.4.6-.5.5-.6.42-.67.3-.73.18-.76.07-.82V301h2z" stroke="#5e5e5e" stroke-width=".05" fill="#5e5e5e"/><path d="M1294 301.03h-2V300h2z" fill="#5e5e5e"/><path d="M1294.02 301.05h-2.05v-1.07h2.05zm-2-1.03v.98h1.95v-.98z" stroke="#5e5e5e" stroke-width=".05" fill="#5e5e5e"/><path d="M914.63 317.5h-9.26l4.63-14.26z" fill="#5e5e5e"/><path d="M916 318.5h-12l6-18.5zm-9.26-2h6.52L910 306.47z" stroke="#5e5e5e" stroke-width=".05" fill="#5e5e5e"/><g><use xlink:href="#W" transform="matrix(1,0,0,1,981.0733151442323,398.4) translate(0 14.4)"/><use xlink:href="#m" transform="matrix(1,0,0,1,981.0733151442323,398.4) translate(63.9 14.4)"/><use xlink:href="#X" transform="matrix(1,0,0,1,981.0733151442323,398.4) translate(116.9 14.4)"/><use xlink:href="#T" transform="matrix(1,0,0,1,981.0733151442323,398.4) translate(195.85000000000002 14.4)"/><use xlink:href="#Y" transform="matrix(1,0,0,1,981.0733151442323,398.4) translate(215.85000000000002 14.4)"/><use xlink:href="#Z" transform="matrix(1,0,0,1,981.0733151442323,398.4) translate(0 36)"/><use xlink:href="#q" transform="matrix(1,0,0,1,981.0733151442323,398.4) translate(62.800000000000004 36)"/><use xlink:href="#r" transform="matrix(1,0,0,1,981.0733151442323,398.4) translate(114.30000000000001 36)"/><use xlink:href="#v" transform="matrix(1,0,0,1,981.0733151442323,398.4) translate(167.9 36)"/></g><path d="M615.48 241h-31.55v-2h31.55zm233.95 0h-49.05v-2h49.05z" stroke="#5e5e5e" stroke-width=".05" fill="#5e5e5e"/><path d="M850.43 241h-1.02v-2h1.03z" fill="#5e5e5e"/><path d="M850.46 241.03h-1.08v-2.06h1.08zm-1.03-2v1.94h.98v-1.94z" stroke="#5e5e5e" stroke-width=".05" fill="#5e5e5e"/><path d="M582.93 244.63L568.67 240l14.26-4.63z" fill="#5e5e5e"/><path d="M583.93 246l-18.5-6 18.5-6zm-12.02-6l10.03 3.26v-6.52z" stroke="#5e5e5e" stroke-width=".05" fill="#5e5e5e"/><g><use xlink:href="#aa" transform="matrix(1,0,0,1,615.4830708661416,229.2) translate(0 14.4)"/><use xlink:href="#ab" transform="matrix(1,0,0,1,615.4830708661416,229.2) translate(85.95 14.4)"/><use xlink:href="#ac" transform="matrix(1,0,0,1,615.4830708661416,229.2) translate(103.9 14.4)"/><use xlink:href="#T" transform="matrix(1,0,0,1,615.4830708661416,229.2) translate(142.9 14.4)"/><use xlink:href="#ad" transform="matrix(1,0,0,1,615.4830708661416,229.2) translate(162.9 14.4)"/></g><path d="M203.44 241H149.7v-2h53.74zm241 0h-71.25v-2h71.23z" stroke="#5e5e5e" stroke-width=".05" fill="#5e5e5e"/><path d="M445.43 241h-1.02v-2h1.03z" fill="#5e5e5e"/><path d="M445.46 241.03h-1.08v-2.06h1.08zm-1.03-2v1.94h.98v-1.94z" stroke="#5e5e5e" stroke-width=".05" fill="#5e5e5e"/><path d="M148.7 244.63L134.43 240l14.27-4.63z" fill="#5e5e5e"/><path d="M149.7 246l-18.5-6 18.5-6zm-12.03-6l10.03 3.26v-6.52z" stroke="#5e5e5e" stroke-width=".05" fill="#5e5e5e"/><g><use xlink:href="#ae" transform="matrix(1,0,0,1,203.4397066219816,218.4) translate(0.0049999999999954525 14.4)"/><use xlink:href="#ab" transform="matrix(1,0,0,1,203.4397066219816,218.4) translate(55.905 14.4)"/><use xlink:href="#af" transform="matrix(1,0,0,1,203.4397066219816,218.4) translate(73.855 14.4)"/><use xlink:href="#D" transform="matrix(1,0,0,1,203.4397066219816,218.4) translate(154.755 14.4)"/><use xlink:href="#ag" transform="matrix(1,0,0,1,203.4397066219816,218.4) translate(20.47999999999999 36)"/><use xlink:href="#M" transform="matrix(1,0,0,1,203.4397066219816,218.4) translate(60.42999999999999 36)"/><use xlink:href="#ah" transform="matrix(1,0,0,1,203.4397066219816,218.4) translate(85.42999999999999 36)"/></g><path d="M445.43 180h120v120h-120V180z" stroke="#fff" stroke-opacity="0" stroke-width="2" fill="#3f8624"/><path d="M543.72 244.06c-.46-2.48-3.3-4.25-5.3-5.53-.6-.4-2.3-1.04-2.44-1.6 0-.4 0-.8.15-1.2l1.6-11.46 1.4-10.17c.38-3.05-1.08-5.13-3.6-6.9-5.15-3.6-11.9-5.04-17.95-6-7.98-1.28-14.95-1.52-23-.72-7.3.48-13.34 1.92-20.1 4.8-3.36 1.6-7.9 4.1-7.27 8.42 1.54 12.98 3.46 25.95 5.22 38.93.77 5.93 1.6 11.86 2.38 17.8.3 2.47 1.68 4.4 3.98 5.35 4.9 2.65 11.04 3.45 16.64 3.93 7.74.73 14.34.5 22-.95 4.6-.8 13.2-2.25 13.96-8 .92-7.14 1.9-14.27 2.83-21.4l.4-2.17c2.6.64 10.04 2 9.12-3.12zM503.1 203.2c9.65 0 20.6 1.12 29.2 5.85 1.38.72 4.45 2.32 3.53 4.33-.93 1.92-3.84 2.88-5.6 3.6-2.6.96-5 1.6-7.75 2.16-11.96 2.4-22.54 2.65-34.65.73-5.44-.57-9.97-1.93-14.87-4.33-1.15-.72-3.07-1.84-2.53-3.45.38-.9 1-1.53 1.84-2 3.75-2.4 7.2-3.85 11.57-4.66 6.6-1.6 12.42-2.32 19.25-2.24zm25.13 67.46c-.3 1.84-3.37 2.8-4.83 3.28-3.22 1.12-6.05 1.76-9.43 2.16-7.43.97-13.87.97-21.4 0-4.66-.4-8.57-1.44-12.8-3.52-1.14-.48-1.83-1.52-1.9-2.72-1.62-12.74-3.38-25.4-5.14-38.06l-1.84-13.78c3.82 2.1 7.35 3.37 11.64 4.1 4.68.95 8.6 1.43 13.34 1.75 9.2.64 17.1.24 26.22-1.44 4.83-.72 8.82-2.08 13.1-4.4l-3.36 25.07c-8.6-2.8-15.64-5.6-23.7-9.54-.38-.16-.68-.32-1-.48-.45-.32-.3-.16-.53-.64-.37-.96-.45-1.6-1.3-2.4-.76-.56-1.6-.8-2.52-.72-2 .08-3.53 1.84-3.37 3.84.16 1.93 1.92 3.45 3.92 3.3.53-.1 1-.25 1.6-.5.62-.15.62-.15 1.23.17 8.2 4 15.34 6.97 24 9.85 1.23.4 1.23 0 1.23 1.04-.08.8-.16 1.53-.3 2.33l-1 7.6zm-24.68-37.9c0 .48-.62.4-.77.16-.23-.32.77-.72.77-.16zm31.5 11.22l.47-3.53c1.6.97 4.3 2.33 5.06 4.1-1.6.63-4.07-.17-5.52-.57z" stroke="#fff" stroke-opacity="0" stroke-width="2" fill="#fff"/><g><use xlink:href="#G" transform="matrix(1,0,0,1,415.4330708661416,309) translate(27.099999999999994 14.4)"/><use xlink:href="#ai" transform="matrix(1,0,0,1,415.4330708661416,309) translate(98.05 14.4)"/><use xlink:href="#aj" transform="matrix(1,0,0,1,415.4330708661416,309) translate(6.624999999999986 36)"/><use xlink:href="#ak" transform="matrix(1,0,0,1,415.4330708661416,309) translate(74.57499999999999 36)"/><use xlink:href="#al" transform="matrix(1,0,0,1,415.4330708661416,309) translate(139.47500000000002 36)"/></g><defs><linearGradient gradientUnits="userSpaceOnUse" id="a" x1="105.43" y1="165.35" x2="105.43" y2="329.67"><stop offset="22%" stop-color="#32d4f5" stop-opacity=".8"/><stop offset="100%" stop-color="#198ab3" stop-opacity=".8"/></linearGradient><linearGradient gradientUnits="userSpaceOnUse" id="b" x1="100.63" y1="174.76" x2="112.52" y2="336.16"><stop offset="22%" stop-color="#32d4f5" stop-opacity=".8"/><stop offset="100%" stop-color="#198ab3" stop-opacity=".8"/></linearGradient><path d="M30-248c118-7 216 8 213 122C240-48 200 0 122 0H30v-248zM63-27c89 8 146-16 146-99s-60-101-146-95v194" id="am"/><path d="M114-163C36-179 61-72 57 0H25l-1-190h30c1 12-1 29 2 39 6-27 23-49 58-41v29" id="an"/><path d="M24-231v-30h32v30H24zM24 0v-190h32V0H24" id="ao"/><path d="M108 0H70L1-190h34L89-25l56-165h34" id="ap"/><path d="M100-194c63 0 86 42 84 106H49c0 40 14 67 53 68 26 1 43-12 49-29l28 8c-11 28-37 45-77 45C44 4 14-33 15-96c1-61 26-98 85-98zm52 81c6-60-76-77-97-28-3 7-6 17-6 28h103" id="aq"/><g id="c"><use transform="matrix(0.05,0,0,0.05,0,0)" xlink:href="#am"/><use transform="matrix(0.05,0,0,0.05,12.950000000000001,0)" xlink:href="#an"/><use transform="matrix(0.05,0,0,0.05,18.900000000000002,0)" xlink:href="#ao"/><use transform="matrix(0.05,0,0,0.05,22.85,0)" xlink:href="#ap"/><use transform="matrix(0.05,0,0,0.05,31.85,0)" xlink:href="#aq"/><use transform="matrix(0.05,0,0,0.05,41.85,0)" xlink:href="#an"/></g><path fill="#333" d="M30-248c118-7 216 8 213 122C240-48 200 0 122 0H30v-248zM63-27c89 8 146-16 146-99s-60-101-146-95v194" id="ar"/><path fill="#333" d="M114-163C36-179 61-72 57 0H25l-1-190h30c1 12-1 29 2 39 6-27 23-49 58-41v29" id="as"/><path fill="#333" d="M24-231v-30h32v30H24zM24 0v-190h32V0H24" id="at"/><path fill="#333" d="M108 0H70L1-190h34L89-25l56-165h34" id="au"/><path fill="#333" d="M100-194c63 0 86 42 84 106H49c0 40 14 67 53 68 26 1 43-12 49-29l28 8c-11 28-37 45-77 45C44 4 14-33 15-96c1-61 26-98 85-98zm52 81c6-60-76-77-97-28-3 7-6 17-6 28h103" id="av"/><g id="d"><use transform="matrix(0.05,0,0,0.05,0,0)" xlink:href="#ar"/><use transform="matrix(0.05,0,0,0.05,12.950000000000001,0)" xlink:href="#as"/><use transform="matrix(0.05,0,0,0.05,18.900000000000002,0)" xlink:href="#at"/><use transform="matrix(0.05,0,0,0.05,22.85,0)" xlink:href="#au"/><use transform="matrix(0.05,0,0,0.05,31.85,0)" xlink:href="#av"/><use transform="matrix(0.05,0,0,0.05,41.85,0)" xlink:href="#as"/></g><path fill="#333" d="M177-190C167-65 218 103 67 71c-23-6-38-20-44-43l32-5c15 47 100 32 89-28v-30C133-14 115 1 83 1 29 1 15-40 15-95c0-56 16-97 71-98 29-1 48 16 59 35 1-10 0-23 2-32h30zM94-22c36 0 50-32 50-73 0-42-14-75-50-75-39 0-46 34-46 75s6 73 46 73" id="aw"/><path fill="#333" d="M135-143c-3-34-86-38-87 0 15 53 115 12 119 90S17 21 10-45l28-5c4 36 97 45 98 0-10-56-113-15-118-90-4-57 82-63 122-42 12 7 21 19 24 35" id="ax"/><path fill="#333" d="M59-47c-2 24 18 29 38 22v24C64 9 27 4 27-40v-127H5v-23h24l9-43h21v43h35v23H59v120" id="ay"/><g id="e"><use transform="matrix(0.05,0,0,0.05,0,0)" xlink:href="#as"/><use transform="matrix(0.05,0,0,0.05,5.95,0)" xlink:href="#av"/><use transform="matrix(0.05,0,0,0.05,15.949999999999998,0)" xlink:href="#aw"/><use transform="matrix(0.05,0,0,0.05,25.950000000000003,0)" xlink:href="#at"/><use transform="matrix(0.05,0,0,0.05,29.899999999999995,0)" xlink:href="#ax"/><use transform="matrix(0.05,0,0,0.05,38.9,0)" xlink:href="#ay"/><use transform="matrix(0.05,0,0,0.05,43.9,0)" xlink:href="#av"/><use transform="matrix(0.05,0,0,0.05,53.900000000000006,0)" xlink:href="#as"/><use transform="matrix(0.05,0,0,0.05,59.85,0)" xlink:href="#ax"/></g><path fill="#333" d="M106-169C34-169 62-67 57 0H25v-261h32l-1 103c12-21 28-36 61-36 89 0 53 116 60 194h-32v-121c2-32-8-49-39-48" id="az"/><g id="f"><use transform="matrix(0.05,0,0,0.05,0,0)" xlink:href="#ay"/><use transform="matrix(0.05,0,0,0.05,5,0)" xlink:href="#az"/><use transform="matrix(0.05,0,0,0.05,15,0)" xlink:href="#av"/></g><path fill="#333" d="M96-169c-40 0-48 33-48 73s9 75 48 75c24 0 41-14 43-38l32 2c-6 37-31 61-74 61-59 0-76-41-82-99-10-93 101-131 147-64 4 7 5 14 7 22l-32 3c-4-21-16-35-41-35" id="aA"/><path fill="#333" d="M141-36C126-15 110 5 73 4 37 3 15-17 15-53c-1-64 63-63 125-63 3-35-9-54-41-54-24 1-41 7-42 31l-33-3c5-37 33-52 76-52 45 0 72 20 72 64v82c-1 20 7 32 28 27v20c-31 9-61-2-59-35zM48-53c0 20 12 33 32 33 41-3 63-29 60-74-43 2-92-5-92 41" id="aB"/><g id="g"><use transform="matrix(0.05,0,0,0.05,0,0)" xlink:href="#aA"/><use transform="matrix(0.05,0,0,0.05,9,0)" xlink:href="#aB"/><use transform="matrix(0.05,0,0,0.05,19,0)" xlink:href="#as"/></g><linearGradient gradientUnits="userSpaceOnUse" id="h" x1="850.43" y1="300" x2="970.43" y2="180"><stop offset="0%" stop-color="#b0084d"/><stop offset="100%" stop-color="#ff4f8b"/></linearGradient><path d="M205 0l-28-72H64L36 0H1l101-248h38L239 0h-34zm-38-99l-47-123c-12 45-31 82-46 123h93" id="aC"/><path d="M210-169c-67 3-38 105-44 169h-31v-121c0-29-5-50-35-48C34-165 62-65 56 0H25l-1-190h30c1 10-1 24 2 32 10-44 99-50 107 0 11-21 27-35 58-36 85-2 47 119 55 194h-31v-121c0-29-5-49-35-48" id="aD"/><path d="M141-36C126-15 110 5 73 4 37 3 15-17 15-53c-1-64 63-63 125-63 3-35-9-54-41-54-24 1-41 7-42 31l-33-3c5-37 33-52 76-52 45 0 72 20 72 64v82c-1 20 7 32 28 27v20c-31 9-61-2-59-35zM48-53c0 20 12 33 32 33 41-3 63-29 60-74-43 2-92-5-92 41" id="aE"/><path d="M9 0v-24l116-142H16v-24h144v24L44-24h123V0H9" id="aF"/><path d="M100-194c62-1 85 37 85 99 1 63-27 99-86 99S16-35 15-95c0-66 28-99 85-99zM99-20c44 1 53-31 53-75 0-43-8-75-51-75s-53 32-53 75 10 74 51 75" id="aG"/><path d="M117-194c89-4 53 116 60 194h-32v-121c0-31-8-49-39-48C34-167 62-67 57 0H25l-1-190h30c1 10-1 24 2 32 11-22 29-35 61-36" id="aH"/><g id="i"><use transform="matrix(0.05,0,0,0.05,0,0)" xlink:href="#aC"/><use transform="matrix(0.05,0,0,0.05,12,0)" xlink:href="#aD"/><use transform="matrix(0.05,0,0,0.05,26.950000000000003,0)" xlink:href="#aE"/><use transform="matrix(0.05,0,0,0.05,36.95,0)" xlink:href="#aF"/><use transform="matrix(0.05,0,0,0.05,45.95,0)" xlink:href="#aG"/><use transform="matrix(0.05,0,0,0.05,55.95,0)" xlink:href="#aH"/></g><path d="M30-248c87 1 191-15 191 75 0 78-77 80-158 76V0H30v-248zm33 125c57 0 124 11 124-50 0-59-68-47-124-48v98" id="aI"/><path d="M33 0v-248h34V0H33" id="aJ"/><g id="j"><use transform="matrix(0.05,0,0,0.05,0,0)" xlink:href="#aC"/><use transform="matrix(0.05,0,0,0.05,12,0)" xlink:href="#aI"/><use transform="matrix(0.05,0,0,0.05,24,0)" xlink:href="#aJ"/></g><path d="M143 4C61 4 22-44 18-125c-5-107 100-154 193-111 17 8 29 25 37 43l-32 9c-13-25-37-40-76-40-61 0-88 39-88 99 0 61 29 100 91 101 35 0 62-11 79-27v-45h-74v-28h105v86C228-13 192 4 143 4" id="aK"/><path d="M59-47c-2 24 18 29 38 22v24C64 9 27 4 27-40v-127H5v-23h24l9-43h21v43h35v23H59v120" id="aL"/><path d="M206 0h-36l-40-164L89 0H53L-1-190h32L70-26l43-164h34l41 164 42-164h31" id="aM"/><path d="M179-190L93 31C79 59 56 82 12 73V49c39 6 53-20 64-50L1-190h34L92-34l54-156h33" id="aN"/><g id="k"><use transform="matrix(0.05,0,0,0.05,0,0)" xlink:href="#aK"/><use transform="matrix(0.05,0,0,0.05,14,0)" xlink:href="#aE"/><use transform="matrix(0.05,0,0,0.05,24,0)" xlink:href="#aL"/><use transform="matrix(0.05,0,0,0.05,29,0)" xlink:href="#aq"/><use transform="matrix(0.05,0,0,0.05,39,0)" xlink:href="#aM"/><use transform="matrix(0.05,0,0,0.05,51.95,0)" xlink:href="#aE"/><use transform="matrix(0.05,0,0,0.05,61.95,0)" xlink:href="#aN"/></g><path fill="#333" d="M185-189c-5-48-123-54-124 2 14 75 158 14 163 119 3 78-121 87-175 55-17-10-28-26-33-46l33-7c5 56 141 63 141-1 0-78-155-14-162-118-5-82 145-84 179-34 5 7 8 16 11 25" id="aO"/><path fill="#333" d="M126-127c33 6 58 20 58 59 0 88-139 92-164 29-3-8-5-16-6-25l32-3c6 27 21 44 54 44 32 0 52-15 52-46 0-38-36-46-79-43v-28c39 1 72-4 72-42 0-27-17-43-46-43-28 0-47 15-49 41l-32-3c6-42 35-63 81-64 48-1 79 21 79 65 0 36-21 52-52 59" id="aP"/><g id="l"><use transform="matrix(0.05,0,0,0.05,0,0)" xlink:href="#aO"/><use transform="matrix(0.05,0,0,0.05,12,0)" xlink:href="#aP"/></g><path fill="#333" d="M117-194c89-4 53 116 60 194h-32v-121c0-31-8-49-39-48C34-167 62-67 57 0H25l-1-190h30c1 10-1 24 2 32 11-22 29-35 61-36" id="aQ"/><path fill="#333" d="M85-194c31 0 48 13 60 33l-1-100h32l1 261h-30c-2-10 0-23-3-31C134-8 116 4 85 4 32 4 16-35 15-94c0-66 23-100 70-100zm9 24c-40 0-46 34-46 75 0 40 6 74 45 74 42 0 51-32 51-76 0-42-9-74-50-73" id="aR"/><g id="m"><use transform="matrix(0.05,0,0,0.05,0,0)" xlink:href="#ax"/><use transform="matrix(0.05,0,0,0.05,9,0)" xlink:href="#av"/><use transform="matrix(0.05,0,0,0.05,19,0)" xlink:href="#aQ"/><use transform="matrix(0.05,0,0,0.05,29,0)" xlink:href="#aR"/><use transform="matrix(0.05,0,0,0.05,39,0)" xlink:href="#ax"/></g><path fill="#333" d="M153-248C145-148 188 4 80 4 36 3 13-21 6-62l32-5c4 25 16 42 43 43 27 0 39-20 39-49v-147H72v-28h81" id="aS"/><path fill="#333" d="M140-251c81 0 123 46 123 126C263-46 219 4 140 4 59 4 17-45 17-125s42-126 123-126zm0 227c63 0 89-41 89-101s-29-99-89-99c-61 0-89 39-89 99S79-25 140-24" id="aT"/><path fill="#333" d="M190 0L58-211 59 0H30v-248h39L202-35l-2-213h31V0h-41" id="aU"/><g id="n"><use transform="matrix(0.05,0,0,0.05,0,0)" xlink:href="#aS"/><use transform="matrix(0.05,0,0,0.05,9,0)" xlink:href="#aO"/><use transform="matrix(0.05,0,0,0.05,21,0)" xlink:href="#aT"/><use transform="matrix(0.05,0,0,0.05,35,0)" xlink:href="#aU"/></g><g id="o"><use transform="matrix(0.05,0,0,0.05,0,0)" xlink:href="#aR"/><use transform="matrix(0.05,0,0,0.05,10,0)" xlink:href="#aB"/><use transform="matrix(0.05,0,0,0.05,20,0)" xlink:href="#ay"/><use transform="matrix(0.05,0,0,0.05,25,0)" xlink:href="#aB"/></g><path fill="#333" d="M100-194c62-1 85 37 85 99 1 63-27 99-86 99S16-35 15-95c0-66 28-99 85-99zM99-20c44 1 53-31 53-75 0-43-8-75-51-75s-53 32-53 75 10 74 51 75" id="aV"/><g id="p"><use transform="matrix(0.05,0,0,0.05,0,0)" xlink:href="#ay"/><use transform="matrix(0.05,0,0,0.05,5,0)" xlink:href="#aV"/></g><path fill="#333" d="M197 0v-115H63V0H30v-248h33v105h134v-105h34V0h-34" id="aW"/><path fill="#333" d="M127-220V0H93v-220H8v-28h204v28h-85" id="aX"/><path fill="#333" d="M30-248c87 1 191-15 191 75 0 78-77 80-158 76V0H30v-248zm33 125c57 0 124 11 124-50 0-59-68-47-124-48v98" id="aY"/><g id="q"><use transform="matrix(0.05,0,0,0.05,0,0)" xlink:href="#aW"/><use transform="matrix(0.05,0,0,0.05,12.950000000000001,0)" xlink:href="#aX"/><use transform="matrix(0.05,0,0,0.05,23.900000000000002,0)" xlink:href="#aX"/><use transform="matrix(0.05,0,0,0.05,34.85,0)" xlink:href="#aY"/></g><g id="r"><use transform="matrix(0.05,0,0,0.05,0,0)" xlink:href="#aY"/><use transform="matrix(0.05,0,0,0.05,12,0)" xlink:href="#aT"/><use transform="matrix(0.05,0,0,0.05,26,0)" xlink:href="#aO"/><use transform="matrix(0.05,0,0,0.05,38,0)" xlink:href="#aX"/></g><path fill="#333" d="M205 0l-28-72H64L36 0H1l101-248h38L239 0h-34zm-38-99l-47-123c-12 45-31 82-46 123h93" id="aZ"/><path fill="#333" d="M33 0v-248h34V0H33" id="ba"/><g id="s"><use transform="matrix(0.05,0,0,0.05,0,0)" xlink:href="#aZ"/><use transform="matrix(0.05,0,0,0.05,12,0)" xlink:href="#aY"/><use transform="matrix(0.05,0,0,0.05,24,0)" xlink:href="#ba"/></g><g id="t"><use transform="matrix(0.05,0,0,0.05,0,0)" xlink:href="#aB"/><use transform="matrix(0.05,0,0,0.05,10,0)" xlink:href="#ax"/></g><use transform="matrix(0.05,0,0,0.05,0,0)" xlink:href="#aB" id="u"/><path fill="#333" d="M145-31C134-9 116 4 85 4 32 4 16-35 15-94c0-59 17-99 70-100 32-1 48 14 60 33 0-11-1-24 2-32h30l-1 268h-32zM93-21c41 0 51-33 51-76s-8-73-50-73c-40 0-46 35-46 75s5 74 45 74" id="bb"/><path fill="#333" d="M84 4C-5 8 30-112 23-190h32v120c0 31 7 50 39 49 72-2 45-101 50-169h31l1 190h-30c-1-10 1-25-2-33-11 22-28 36-60 37" id="bc"/><g id="v"><use transform="matrix(0.05,0,0,0.05,0,0)" xlink:href="#as"/><use transform="matrix(0.05,0,0,0.05,5.95,0)" xlink:href="#av"/><use transform="matrix(0.05,0,0,0.05,15.949999999999998,0)" xlink:href="#bb"/><use transform="matrix(0.05,0,0,0.05,25.950000000000003,0)" xlink:href="#bc"/><use transform="matrix(0.05,0,0,0.05,35.95,0)" xlink:href="#av"/><use transform="matrix(0.05,0,0,0.05,45.95,0)" xlink:href="#ax"/><use transform="matrix(0.05,0,0,0.05,54.95,0)" xlink:href="#ay"/></g><path fill="#333" d="M266 0h-40l-56-210L115 0H75L2-248h35L96-30l15-64 43-154h32l59 218 59-218h35" id="bd"/><g id="w"><use transform="matrix(0.05,0,0,0.05,0,0)" xlink:href="#aZ"/><use transform="matrix(0.05,0,0,0.05,11.35,0)" xlink:href="#bd"/><use transform="matrix(0.05,0,0,0.05,28.299999999999997,0)" xlink:href="#aO"/></g><path fill="#333" d="M30 0v-248h33v221h125V0H30" id="be"/><path fill="#333" d="M210-169c-67 3-38 105-44 169h-31v-121c0-29-5-50-35-48C34-165 62-65 56 0H25l-1-190h30c1 10-1 24 2 32 10-44 99-50 107 0 11-21 27-35 58-36 85-2 47 119 55 194h-31v-121c0-29-5-49-35-48" id="bf"/><path fill="#333" d="M115-194c53 0 69 39 70 98 0 66-23 100-70 100C84 3 66-7 56-30L54 0H23l1-261h32v101c10-23 28-34 59-34zm-8 174c40 0 45-34 45-75 0-40-5-75-45-74-42 0-51 32-51 76 0 43 10 73 51 73" id="bg"/><g id="x"><use transform="matrix(0.05,0,0,0.05,0,0)" xlink:href="#be"/><use transform="matrix(0.05,0,0,0.05,10,0)" xlink:href="#aB"/><use transform="matrix(0.05,0,0,0.05,20,0)" xlink:href="#bf"/><use transform="matrix(0.05,0,0,0.05,34.95,0)" xlink:href="#bg"/><use transform="matrix(0.05,0,0,0.05,44.95,0)" xlink:href="#aR"/><use transform="matrix(0.05,0,0,0.05,54.95,0)" xlink:href="#aB"/></g><g id="y"><use transform="matrix(0.05,0,0,0.05,0,0)" xlink:href="#aY"/><use transform="matrix(0.05,0,0,0.05,12,0)" xlink:href="#aT"/><use transform="matrix(0.05,0,0,0.05,26,0)" xlink:href="#aO"/><use transform="matrix(0.05,0,0,0.05,38,0)" xlink:href="#aX"/></g><g id="z"><use transform="matrix(0.05,0,0,0.05,0,0)" xlink:href="#aZ"/><use transform="matrix(0.05,0,0,0.05,12,0)" xlink:href="#aY"/><use transform="matrix(0.05,0,0,0.05,24,0)" xlink:href="#ba"/></g><g id="A"><use transform="matrix(0.05,0,0,0.05,0,0)" xlink:href="#ay"/><use transform="matrix(0.05,0,0,0.05,5,0)" xlink:href="#as"/><use transform="matrix(0.05,0,0,0.05,10.95,0)" xlink:href="#at"/><use transform="matrix(0.05,0,0,0.05,14.899999999999999,0)" xlink:href="#aw"/><use transform="matrix(0.05,0,0,0.05,24.9,0)" xlink:href="#aw"/><use transform="matrix(0.05,0,0,0.05,34.9,0)" xlink:href="#av"/><use transform="matrix(0.05,0,0,0.05,44.9,0)" xlink:href="#as"/><use transform="matrix(0.05,0,0,0.05,50.85,0)" xlink:href="#ax"/></g><path fill="#333" d="M24 0v-261h32V0H24" id="bh"/><g id="B"><use transform="matrix(0.05,0,0,0.05,0,0)" xlink:href="#bh"/><use transform="matrix(0.05,0,0,0.05,3.95,0)" xlink:href="#aB"/><use transform="matrix(0.05,0,0,0.05,13.949999999999998,0)" xlink:href="#bf"/><use transform="matrix(0.05,0,0,0.05,28.899999999999995,0)" xlink:href="#bg"/><use transform="matrix(0.05,0,0,0.05,38.9,0)" xlink:href="#aR"/><use transform="matrix(0.05,0,0,0.05,48.9,0)" xlink:href="#aB"/></g><path fill="#333" d="M101-234c-31-9-42 10-38 44h38v23H63V0H32v-167H5v-23h27c-7-52 17-82 69-68v24" id="bi"/><g id="C"><use transform="matrix(0.05,0,0,0.05,0,0)" xlink:href="#bi"/><use transform="matrix(0.05,0,0,0.05,5,0)" xlink:href="#bc"/><use transform="matrix(0.05,0,0,0.05,15,0)" xlink:href="#aQ"/><use transform="matrix(0.05,0,0,0.05,25,0)" xlink:href="#aA"/><use transform="matrix(0.05,0,0,0.05,34,0)" xlink:href="#ay"/><use transform="matrix(0.05,0,0,0.05,39,0)" xlink:href="#at"/><use transform="matrix(0.05,0,0,0.05,42.95,0)" xlink:href="#aV"/><use transform="matrix(0.05,0,0,0.05,52.95,0)" xlink:href="#aQ"/></g><g id="D"><use transform="matrix(0.05,0,0,0.05,0,0)" xlink:href="#ay"/><use transform="matrix(0.05,0,0,0.05,5,0)" xlink:href="#aV"/></g><path fill="#333" d="M206 0h-36l-40-164L89 0H53L-1-190h32L70-26l43-164h34l41 164 42-164h31" id="bj"/><g id="E"><use transform="matrix(0.05,0,0,0.05,0,0)" xlink:href="#bj"/><use transform="matrix(0.05,0,0,0.05,12.950000000000001,0)" xlink:href="#as"/><use transform="matrix(0.05,0,0,0.05,18.900000000000002,0)" xlink:href="#at"/><use transform="matrix(0.05,0,0,0.05,22.85,0)" xlink:href="#ay"/><use transform="matrix(0.05,0,0,0.05,27.85,0)" xlink:href="#av"/></g><g id="F"><use transform="matrix(0.05,0,0,0.05,0,0)" xlink:href="#aR"/><use transform="matrix(0.05,0,0,0.05,10,0)" xlink:href="#aB"/><use transform="matrix(0.05,0,0,0.05,20,0)" xlink:href="#ay"/><use transform="matrix(0.05,0,0,0.05,25,0)" xlink:href="#aB"/></g><path fill="#333" d="M9 0v-24l116-142H16v-24h144v24L44-24h123V0H9" id="bk"/><g id="G"><use transform="matrix(0.05,0,0,0.05,0,0)" xlink:href="#aZ"/><use transform="matrix(0.05,0,0,0.05,12,0)" xlink:href="#bf"/><use transform="matrix(0.05,0,0,0.05,26.950000000000003,0)" xlink:href="#aB"/><use transform="matrix(0.05,0,0,0.05,36.95,0)" xlink:href="#bk"/><use transform="matrix(0.05,0,0,0.05,45.95,0)" xlink:href="#aV"/><use transform="matrix(0.05,0,0,0.05,55.95,0)" xlink:href="#aQ"/></g><path fill="#333" d="M179-190L93 31C79 59 56 82 12 73V49c39 6 53-20 64-50L1-190h34L92-34l54-156h33" id="bl"/><path fill="#333" d="M160-131c35 5 61 23 61 61C221 17 115-2 30 0v-248c76 3 177-17 177 60 0 33-19 50-47 57zm-97-11c50-1 110 9 110-42 0-47-63-36-110-37v79zm0 115c55-2 124 14 124-45 0-56-70-42-124-44v89" id="bm"/><g id="H"><use transform="matrix(0.05,0,0,0.05,0,0)" xlink:href="#ar"/><use transform="matrix(0.05,0,0,0.05,12.950000000000001,0)" xlink:href="#bl"/><use transform="matrix(0.05,0,0,0.05,21.950000000000003,0)" xlink:href="#aQ"/><use transform="matrix(0.05,0,0,0.05,31.950000000000003,0)" xlink:href="#aB"/><use transform="matrix(0.05,0,0,0.05,41.95,0)" xlink:href="#bf"/><use transform="matrix(0.05,0,0,0.05,56.900000000000006,0)" xlink:href="#aV"/><use transform="matrix(0.05,0,0,0.05,66.9,0)" xlink:href="#ar"/><use transform="matrix(0.05,0,0,0.05,79.85000000000001,0)" xlink:href="#bm"/></g><g id="I"><use transform="matrix(0.05,0,0,0.05,0,0)" xlink:href="#be"/><use transform="matrix(0.05,0,0,0.05,10,0)" xlink:href="#aB"/><use transform="matrix(0.05,0,0,0.05,20,0)" xlink:href="#bf"/><use transform="matrix(0.05,0,0,0.05,34.95,0)" xlink:href="#bg"/><use transform="matrix(0.05,0,0,0.05,44.95,0)" xlink:href="#aR"/><use transform="matrix(0.05,0,0,0.05,54.95,0)" xlink:href="#aB"/></g><path fill="#333" d="M115-194c55 1 70 41 70 98S169 2 115 4C84 4 66-9 55-30l1 105H24l-1-265h31l2 30c10-21 28-34 59-34zm-8 174c40 0 45-34 45-75s-6-73-45-74c-42 0-51 32-51 76 0 43 10 73 51 73" id="bn"/><g id="J"><use transform="matrix(0.05,0,0,0.05,0,0)" xlink:href="#bn"/><use transform="matrix(0.05,0,0,0.05,10,0)" xlink:href="#as"/><use transform="matrix(0.05,0,0,0.05,15.949999999999998,0)" xlink:href="#aV"/><use transform="matrix(0.05,0,0,0.05,25.950000000000003,0)" xlink:href="#au"/><use transform="matrix(0.05,0,0,0.05,34.95,0)" xlink:href="#at"/><use transform="matrix(0.05,0,0,0.05,38.900000000000006,0)" xlink:href="#aR"/><use transform="matrix(0.05,0,0,0.05,48.900000000000006,0)" xlink:href="#av"/><use transform="matrix(0.05,0,0,0.05,58.900000000000006,0)" xlink:href="#ax"/></g><g id="K"><use transform="matrix(0.05,0,0,0.05,0,0)" xlink:href="#aR"/><use transform="matrix(0.05,0,0,0.05,10,0)" xlink:href="#aB"/><use transform="matrix(0.05,0,0,0.05,20,0)" xlink:href="#ay"/><use transform="matrix(0.05,0,0,0.05,25,0)" xlink:href="#aB"/></g><g id="L"><use transform="matrix(0.05,0,0,0.05,0,0)" xlink:href="#bj"/><use transform="matrix(0.05,0,0,0.05,12.950000000000001,0)" xlink:href="#as"/><use transform="matrix(0.05,0,0,0.05,18.900000000000002,0)" xlink:href="#at"/><use transform="matrix(0.05,0,0,0.05,22.85,0)" xlink:href="#ay"/><use transform="matrix(0.05,0,0,0.05,27.85,0)" xlink:href="#av"/></g><g id="M"><use transform="matrix(0.05,0,0,0.05,0,0)" xlink:href="#aV"/><use transform="matrix(0.05,0,0,0.05,10,0)" xlink:href="#aQ"/></g><g id="N"><use transform="matrix(0.05,0,0,0.05,0,0)" xlink:href="#ar"/><use transform="matrix(0.05,0,0,0.05,12.950000000000001,0)" xlink:href="#bl"/><use transform="matrix(0.05,0,0,0.05,21.950000000000003,0)" xlink:href="#aQ"/><use transform="matrix(0.05,0,0,0.05,31.950000000000003,0)" xlink:href="#aB"/><use transform="matrix(0.05,0,0,0.05,41.95,0)" xlink:href="#bf"/><use transform="matrix(0.05,0,0,0.05,56.900000000000006,0)" xlink:href="#aV"/><use transform="matrix(0.05,0,0,0.05,66.9,0)" xlink:href="#ar"/><use transform="matrix(0.05,0,0,0.05,79.85000000000001,0)" xlink:href="#bm"/></g><g id="O"><use transform="matrix(0.05,0,0,0.05,0,0)" xlink:href="#ar"/><use transform="matrix(0.05,0,0,0.05,12.950000000000001,0)" xlink:href="#bl"/><use transform="matrix(0.05,0,0,0.05,21.950000000000003,0)" xlink:href="#aQ"/><use transform="matrix(0.05,0,0,0.05,31.950000000000003,0)" xlink:href="#aB"/><use transform="matrix(0.05,0,0,0.05,41.95,0)" xlink:href="#bf"/><use transform="matrix(0.05,0,0,0.05,56.900000000000006,0)" xlink:href="#aV"/><use transform="matrix(0.05,0,0,0.05,66.9,0)" xlink:href="#ar"/><use transform="matrix(0.05,0,0,0.05,79.85000000000001,0)" xlink:href="#bg"/></g><g id="P"><use transform="matrix(0.05,0,0,0.05,0,0)" xlink:href="#ay"/><use transform="matrix(0.05,0,0,0.05,5,0)" xlink:href="#as"/><use transform="matrix(0.05,0,0,0.05,10.95,0)" xlink:href="#at"/><use transform="matrix(0.05,0,0,0.05,14.899999999999999,0)" xlink:href="#aw"/><use transform="matrix(0.05,0,0,0.05,24.9,0)" xlink:href="#aw"/><use transform="matrix(0.05,0,0,0.05,34.9,0)" xlink:href="#av"/><use transform="matrix(0.05,0,0,0.05,44.9,0)" xlink:href="#as"/><use transform="matrix(0.05,0,0,0.05,50.85,0)" xlink:href="#ax"/></g><g id="Q"><use transform="matrix(0.05,0,0,0.05,0,0)" xlink:href="#bh"/><use transform="matrix(0.05,0,0,0.05,3.95,0)" xlink:href="#aB"/><use transform="matrix(0.05,0,0,0.05,13.949999999999998,0)" xlink:href="#bf"/><use transform="matrix(0.05,0,0,0.05,28.899999999999995,0)" xlink:href="#bg"/><use transform="matrix(0.05,0,0,0.05,38.9,0)" xlink:href="#aR"/><use transform="matrix(0.05,0,0,0.05,48.9,0)" xlink:href="#aB"/></g><g id="R"><use transform="matrix(0.05,0,0,0.05,0,0)" xlink:href="#ax"/><use transform="matrix(0.05,0,0,0.05,9,0)" xlink:href="#av"/><use transform="matrix(0.05,0,0,0.05,19,0)" xlink:href="#aQ"/><use transform="matrix(0.05,0,0,0.05,29,0)" xlink:href="#aR"/></g><g id="S"><use transform="matrix(0.05,0,0,0.05,0,0)" xlink:href="#as"/><use transform="matrix(0.05,0,0,0.05,5.95,0)" xlink:href="#av"/><use transform="matrix(0.05,0,0,0.05,15.949999999999998,0)" xlink:href="#ax"/><use transform="matrix(0.05,0,0,0.05,24.95,0)" xlink:href="#bc"/><use transform="matrix(0.05,0,0,0.05,34.95,0)" xlink:href="#bh"/><use transform="matrix(0.05,0,0,0.05,38.900000000000006,0)" xlink:href="#ay"/><use transform="matrix(0.05,0,0,0.05,43.900000000000006,0)" xlink:href="#ax"/></g><g id="T"><use transform="matrix(0.05,0,0,0.05,0,0)" xlink:href="#ay"/><use transform="matrix(0.05,0,0,0.05,5,0)" xlink:href="#aV"/></g><g id="U"><use transform="matrix(0.05,0,0,0.05,0,0)" xlink:href="#av"/><use transform="matrix(0.05,0,0,0.05,10,0)" xlink:href="#aQ"/><use transform="matrix(0.05,0,0,0.05,20,0)" xlink:href="#aR"/></g><g id="V"><use transform="matrix(0.05,0,0,0.05,0,0)" xlink:href="#bc"/><use transform="matrix(0.05,0,0,0.05,10,0)" xlink:href="#ax"/><use transform="matrix(0.05,0,0,0.05,19,0)" xlink:href="#av"/><use transform="matrix(0.05,0,0,0.05,29,0)" xlink:href="#as"/></g><g id="W"><use transform="matrix(0.05,0,0,0.05,0,0)" xlink:href="#bh"/><use transform="matrix(0.05,0,0,0.05,3.95,0)" xlink:href="#aB"/><use transform="matrix(0.05,0,0,0.05,13.949999999999998,0)" xlink:href="#bf"/><use transform="matrix(0.05,0,0,0.05,28.899999999999995,0)" xlink:href="#bg"/><use transform="matrix(0.05,0,0,0.05,38.9,0)" xlink:href="#aR"/><use transform="matrix(0.05,0,0,0.05,48.9,0)" xlink:href="#aB"/></g><g id="X"><use transform="matrix(0.05,0,0,0.05,0,0)" xlink:href="#as"/><use transform="matrix(0.05,0,0,0.05,5.95,0)" xlink:href="#av"/><use transform="matrix(0.05,0,0,0.05,15.949999999999998,0)" xlink:href="#ax"/><use transform="matrix(0.05,0,0,0.05,24.95,0)" xlink:href="#bn"/><use transform="matrix(0.05,0,0,0.05,34.95,0)" xlink:href="#aV"/><use transform="matrix(0.05,0,0,0.05,44.95,0)" xlink:href="#aQ"/><use transform="matrix(0.05,0,0,0.05,54.95,0)" xlink:href="#ax"/><use transform="matrix(0.05,0,0,0.05,63.95,0)" xlink:href="#av"/></g><g id="Y"><use transform="matrix(0.05,0,0,0.05,0,0)" xlink:href="#ay"/><use transform="matrix(0.05,0,0,0.05,5,0)" xlink:href="#az"/><use transform="matrix(0.05,0,0,0.05,15,0)" xlink:href="#av"/></g><g id="Z"><use transform="matrix(0.05,0,0,0.05,0,0)" xlink:href="#aV"/><use transform="matrix(0.05,0,0,0.05,10,0)" xlink:href="#as"/><use transform="matrix(0.05,0,0,0.05,15.949999999999998,0)" xlink:href="#at"/><use transform="matrix(0.05,0,0,0.05,19.9,0)" xlink:href="#aw"/><use transform="matrix(0.05,0,0,0.05,29.899999999999995,0)" xlink:href="#at"/><use transform="matrix(0.05,0,0,0.05,33.85,0)" xlink:href="#aQ"/><use transform="matrix(0.05,0,0,0.05,43.85,0)" xlink:href="#aB"/><use transform="matrix(0.05,0,0,0.05,53.85,0)" xlink:href="#bh"/></g><path fill="#333" d="M233-177c-1 41-23 64-60 70L243 0h-38l-65-103H63V0H30v-248c88 3 205-21 203 71zM63-129c60-2 137 13 137-47 0-61-80-42-137-45v92" id="bo"/><g id="aa"><use transform="matrix(0.05,0,0,0.05,0,0)" xlink:href="#bo"/><use transform="matrix(0.05,0,0,0.05,12.950000000000001,0)" xlink:href="#av"/><use transform="matrix(0.05,0,0,0.05,22.950000000000003,0)" xlink:href="#ax"/><use transform="matrix(0.05,0,0,0.05,31.950000000000003,0)" xlink:href="#bn"/><use transform="matrix(0.05,0,0,0.05,41.95,0)" xlink:href="#aV"/><use transform="matrix(0.05,0,0,0.05,51.95,0)" xlink:href="#aQ"/><use transform="matrix(0.05,0,0,0.05,61.95,0)" xlink:href="#ax"/><use transform="matrix(0.05,0,0,0.05,70.95,0)" xlink:href="#av"/></g><g id="ab"><use transform="matrix(0.05,0,0,0.05,0,0)" xlink:href="#at"/><use transform="matrix(0.05,0,0,0.05,3.95,0)" xlink:href="#ax"/></g><g id="ac"><use transform="matrix(0.05,0,0,0.05,0,0)" xlink:href="#ax"/><use transform="matrix(0.05,0,0,0.05,9,0)" xlink:href="#av"/><use transform="matrix(0.05,0,0,0.05,19,0)" xlink:href="#aQ"/><use transform="matrix(0.05,0,0,0.05,29,0)" xlink:href="#ay"/></g><g id="ad"><use transform="matrix(0.05,0,0,0.05,0,0)" xlink:href="#aO"/><use transform="matrix(0.05,0,0,0.05,12,0)" xlink:href="#aP"/></g><g id="ae"><use transform="matrix(0.05,0,0,0.05,0,0)" xlink:href="#bo"/><use transform="matrix(0.05,0,0,0.05,12.950000000000001,0)" xlink:href="#av"/><use transform="matrix(0.05,0,0,0.05,22.950000000000003,0)" xlink:href="#ax"/><use transform="matrix(0.05,0,0,0.05,31.950000000000003,0)" xlink:href="#bc"/><use transform="matrix(0.05,0,0,0.05,41.95,0)" xlink:href="#bh"/><use transform="matrix(0.05,0,0,0.05,45.900000000000006,0)" xlink:href="#ay"/></g><g id="af"><use transform="matrix(0.05,0,0,0.05,0,0)" xlink:href="#aR"/><use transform="matrix(0.05,0,0,0.05,10,0)" xlink:href="#at"/><use transform="matrix(0.05,0,0,0.05,13.949999999999998,0)" xlink:href="#ax"/><use transform="matrix(0.05,0,0,0.05,22.95,0)" xlink:href="#bn"/><use transform="matrix(0.05,0,0,0.05,32.95,0)" xlink:href="#bh"/><use transform="matrix(0.05,0,0,0.05,36.900000000000006,0)" xlink:href="#aB"/><use transform="matrix(0.05,0,0,0.05,46.900000000000006,0)" xlink:href="#bl"/><use transform="matrix(0.05,0,0,0.05,55.900000000000006,0)" xlink:href="#av"/><use transform="matrix(0.05,0,0,0.05,65.9,0)" xlink:href="#aR"/></g><g id="ag"><use transform="matrix(0.05,0,0,0.05,0,0)" xlink:href="#bc"/><use transform="matrix(0.05,0,0,0.05,10,0)" xlink:href="#ax"/><use transform="matrix(0.05,0,0,0.05,19,0)" xlink:href="#av"/><use transform="matrix(0.05,0,0,0.05,29,0)" xlink:href="#as"/></g><g id="ah"><use transform="matrix(0.05,0,0,0.05,0,0)" xlink:href="#bg"/><use transform="matrix(0.05,0,0,0.05,10,0)" xlink:href="#as"/><use transform="matrix(0.05,0,0,0.05,15.949999999999998,0)" xlink:href="#aV"/><use transform="matrix(0.05,0,0,0.05,25.950000000000003,0)" xlink:href="#bj"/><use transform="matrix(0.05,0,0,0.05,38.9,0)" xlink:href="#ax"/><use transform="matrix(0.05,0,0,0.05,47.9,0)" xlink:href="#av"/><use transform="matrix(0.05,0,0,0.05,57.900000000000006,0)" xlink:href="#as"/></g><g id="ai"><use transform="matrix(0.05,0,0,0.05,0,0)" xlink:href="#aO"/><use transform="matrix(0.05,0,0,0.05,12,0)" xlink:href="#at"/><use transform="matrix(0.05,0,0,0.05,15.949999999999998,0)" xlink:href="#bf"/><use transform="matrix(0.05,0,0,0.05,30.899999999999995,0)" xlink:href="#bn"/><use transform="matrix(0.05,0,0,0.05,40.9,0)" xlink:href="#bh"/><use transform="matrix(0.05,0,0,0.05,44.85,0)" xlink:href="#av"/></g><g id="aj"><use transform="matrix(0.05,0,0,0.05,0,0)" xlink:href="#aO"/><use transform="matrix(0.05,0,0,0.05,12,0)" xlink:href="#ay"/><use transform="matrix(0.05,0,0,0.05,17,0)" xlink:href="#aV"/><use transform="matrix(0.05,0,0,0.05,27,0)" xlink:href="#as"/><use transform="matrix(0.05,0,0,0.05,32.95,0)" xlink:href="#aB"/><use transform="matrix(0.05,0,0,0.05,42.95,0)" xlink:href="#aw"/><use transform="matrix(0.05,0,0,0.05,52.95,0)" xlink:href="#av"/></g><g id="ak"><use transform="matrix(0.05,0,0,0.05,0,0)" xlink:href="#aO"/><use transform="matrix(0.05,0,0,0.05,12,0)" xlink:href="#av"/><use transform="matrix(0.05,0,0,0.05,22,0)" xlink:href="#as"/><use transform="matrix(0.05,0,0,0.05,27.950000000000003,0)" xlink:href="#au"/><use transform="matrix(0.05,0,0,0.05,36.95,0)" xlink:href="#at"/><use transform="matrix(0.05,0,0,0.05,40.900000000000006,0)" xlink:href="#aA"/><use transform="matrix(0.05,0,0,0.05,49.900000000000006,0)" xlink:href="#av"/></g><path fill="#333" d="M87 75C49 33 22-17 22-94c0-76 28-126 65-167h31c-38 41-64 92-64 168S80 34 118 75H87" id="bp"/><path fill="#333" d="M33-261c38 41 65 92 65 168S71 34 33 75H2C39 34 66-17 66-93S39-220 2-261h31" id="bq"/><g id="al"><use transform="matrix(0.05,0,0,0.05,0,0)" xlink:href="#bp"/><use transform="matrix(0.05,0,0,0.05,5.95,0)" xlink:href="#aO"/><use transform="matrix(0.05,0,0,0.05,17.95,0)" xlink:href="#aP"/><use transform="matrix(0.05,0,0,0.05,27.950000000000003,0)" xlink:href="#bq"/></g></defs></g></svg>